<svg width="288" height="288" viewBox="0 0 288 288" fill="none" xmlns="http://www.w3.org/2000/svg">
<g clip-path="url(#clip0_1_2)">
<path d="M269.503 123.918C269.503 171.239 269.503 218.34 269.503 265.441C185.836 265.441 102.17 265.441 18.5031 265.441C18.5031 192.108 18.5031 118.774 18.503 45.441C102.17 45.441 185.836 45.441 269.503 45.4409C269.503 71.5264 269.503 97.6119 269.503 123.918ZM103.23 72.793C103.144 72.9345 103.059 73.076 103.007 73.2128C103.007 73.2128 102.998 73.1839 102.642 73.2466C101.02 74.3975 99.1833 75.3822 97.8187 76.733C94.6632 79.8564 91.5335 83.03 88.7672 86.4178C85.2068 90.7782 82.3422 95.5504 80.8321 100.769C79.4129 105.674 77.9502 110.654 77.5183 115.668C77.1054 120.461 77.9955 125.341 78.2918 130.54C79.4719 136.85 82.2525 142.655 85.6962 148.229C87.8993 151.795 90.0962 155.398 94.1561 158.221C94.4041 158.248 94.6521 158.3 94.9001 158.3C127.355 158.305 159.81 158.307 192.265 158.287C192.848 158.287 193.431 158.014 194.333 157.757C197.201 154.238 200.503 150.924 202.822 147.146C205.394 142.957 207.148 138.371 209.079 133.898C209.588 132.72 209.436 131.322 209.788 129.707C210.078 127.646 210.561 125.59 210.622 123.524C210.817 116.937 210.69 110.319 208.075 104.057C205.951 98.9728 203.553 93.9423 200.757 89.1199C198.921 85.9556 196.45 82.9743 193.731 80.3325C190.999 77.678 187.606 75.5458 184.497 73.2126C184.497 73.2126 184.529 73.2079 184.407 72.9257C183.567 72.4643 182.727 72.0029 181.724 71.4757C181.724 71.4757 181.545 71.4641 181.484 71.144C180.651 70.6887 179.818 70.2333 178.624 69.6958C177.526 69.0122 176.517 68.1615 175.315 67.6765C171.863 66.2835 168.344 65.0152 164.832 63.7404C158.625 61.4876 152.054 60.6305 145.432 60.5186C138.633 60.4038 131.83 60.8493 125.365 63.0774C121.348 64.4617 117.237 65.6525 113.289 67.1703C111.536 67.8441 110.08 69.1112 108.179 70.133C107.949 70.277 107.72 70.421 107.138 70.5713C106.592 70.8641 106.046 71.1569 105.526 71.4554C105.526 71.4554 105.522 71.4324 105.183 71.4582C104.613 71.8928 104.043 72.3274 103.506 72.77C103.506 72.77 103.51 72.7398 103.23 72.793ZM145.845 211.035C146.297 210.915 146.75 210.796 147.624 210.775C152.237 210.599 155.807 208.643 158.48 205.515C159.569 204.241 160.042 202.562 160.966 200.76C161.246 199.677 161.525 198.594 161.856 197.104C161.863 193.225 161.893 189.345 161.856 185.466C161.85 184.812 161.555 184.16 161.012 183.46C159.29 183.612 157.568 183.763 155.505 183.973C154.427 184.521 153.348 185.069 151.97 185.743C150.864 186.7 149.757 187.657 148.376 188.811C147.17 190.987 145.964 193.164 144.571 195.152C144.277 194.938 143.699 194.576 143.73 194.531C145.056 192.573 143.256 191.409 142.229 189.749C141.712 189.262 141.194 188.776 140.68 187.974C139.376 187.036 138.072 186.098 136.549 184.9C134.425 184.256 132.314 183.571 130.161 183.011C129.821 182.922 129.289 183.4 128.738 183.969C128.711 184.089 128.685 184.208 128.244 184.445C128.188 185.869 128.133 187.292 127.749 188.687C126.886 187.972 126.024 187.256 125.085 186.319C124.942 186.236 124.799 186.153 124.673 186.052C124.673 186.052 124.68 186.03 124.505 185.767C122.289 184.841 120.128 183.277 117.843 183.123C113.151 182.808 108.169 182.165 103.754 185.247C103.622 185.369 103.491 185.492 103.198 185.701C103.097 185.774 103.028 185.866 102.702 186.057C102.471 186.212 102.241 186.366 101.984 186.703C101.984 186.703 101.977 186.887 101.691 187.049C100.957 187.902 100.224 188.755 99.3842 189.815C99.2375 190.002 99.0907 190.189 98.674 190.559C98.5946 190.841 98.5151 191.123 98.4383 191.665C98.4375 191.838 98.4367 192.012 98.1375 192.419C97.9117 193.176 97.4951 193.933 97.4939 194.691C97.4893 197.589 97.3149 200.457 98.9039 203.24C100.787 206.536 103.428 208.85 107.644 210.187C108.438 210.361 109.232 210.536 110.475 210.782C111.832 210.759 113.189 210.736 114.981 210.778C116.214 210.627 117.446 210.475 119.025 210.29C119.891 209.863 120.757 209.436 121.98 208.978C125.014 208.042 126.7 205.977 128.188 203.389C125.621 202.128 123.18 200.928 120.546 199.47C120.056 199.4 119.388 199.12 119.112 199.301C118.492 199.707 118.067 200.342 117.333 201.023C117.186 201.118 117.038 201.212 116.574 201.356C116.074 201.675 115.573 201.995 114.731 202.361C114.503 202.388 114.275 202.416 113.686 202.411C113.323 202.404 112.961 202.397 112.441 202.096C111.318 201.297 110.196 200.499 109.017 199.509C109.017 199.509 108.964 199.316 109.022 199.074C108.87 198.989 108.718 198.903 108.527 198.428C108.521 197.119 108.516 195.81 108.578 194.185C109.276 193.258 109.973 192.33 110.872 191.39C110.872 191.39 111.071 191.358 111.43 191.257C113.485 191.74 115.539 192.223 117.734 192.982C119.456 194.93 119.456 194.93 122.557 192.72C124.397 191.981 126.237 191.242 128.129 190.91C128.306 193.121 128.483 195.332 128.647 197.757C128.647 197.757 128.645 197.97 128.642 198.316C128.971 199.247 129.301 200.178 129.646 201.449C129.913 202.2 130.056 203.007 130.467 203.692C133.475 208.706 138.369 210.867 145.017 210.814C145.23 210.813 145.442 210.812 145.845 211.035ZM186.674 183.876C186.451 183.876 186.227 183.877 185.685 183.652C183.954 183.575 182.223 183.498 180.264 183.222C179.659 183.299 179.054 183.375 178.027 183.443C177.322 183.455 176.618 183.467 175.513 183.458C174.977 183.473 174.442 183.488 173.541 183.466C173.173 183.447 172.806 183.429 172.173 183.239C171.236 183.333 170.298 183.427 168.924 183.482C167.899 183.497 166.874 183.512 165.42 183.481C163.057 183.103 162.006 183.864 162.321 186.049C162.486 187.199 162.204 188.402 162.413 189.541C162.72 191.221 163.67 192.278 166.289 191.383C167.32 191.365 168.35 191.347 169.793 191.405C170.157 192.08 170.816 192.747 170.839 193.431C170.977 197.586 170.971 201.745 170.976 206.149C171.116 206.342 171.255 206.536 171.407 207.139C171.416 207.939 171.264 208.777 171.494 209.525C171.642 210.005 172.333 210.684 172.812 210.705C175.461 210.82 178.121 210.797 180.773 210.718C181.183 210.706 181.572 210.161 181.968 209.455C181.969 203.429 181.969 197.403 182.441 191.379C185.137 191.23 187.833 191.081 190.78 190.677C190.863 189.879 190.946 189.081 191.029 187.928C190.898 187.226 190.663 186.526 190.653 185.823C190.613 183.18 190.119 182.899 186.674 183.876ZM170.452 163.604C148.14 163.597 125.828 163.587 103.516 163.602C102.847 163.603 102.179 163.878 101.488 164.362C101.846 164.955 102.032 165.764 102.59 166.105C106.823 168.693 111.035 171.323 115.44 173.672C118.906 175.52 119.018 175.346 122.008 172.772C122.539 172.315 123.13 171.911 124.151 171.52C137.727 171.551 151.303 171.582 165.051 171.86C165.58 172.511 166.112 173.158 166.637 173.811C167.669 175.094 168.996 175.363 170.509 174.562C174.817 172.278 179.242 170.13 183.303 167.545C184.521 166.769 187.281 166.444 186.313 163.69C181.182 163.682 176.051 163.674 170.452 163.604Z" fill="white"/>
<path d="M93.9826 157.867C90.0963 155.398 87.8993 151.795 85.6962 148.229C82.2525 142.655 79.4719 136.85 78.4783 130.346C79.4392 129.611 80.2138 129.07 80.9834 128.519C80.9785 128.509 80.9805 128.489 81.1191 128.465C81.441 128.266 81.6242 128.09 81.9746 127.867C85.3898 125.421 88.6376 123.023 92.0467 120.601C92.287 120.512 92.3661 120.447 92.5706 120.37C92.82 120.187 92.944 120.015 93.2566 119.8C93.6747 119.651 93.9043 119.543 94.2868 119.572C94.4839 121.102 94.5634 122.495 94.5665 123.889C94.5829 131.382 94.551 138.875 94.5994 146.369C94.6175 149.181 95.9991 150.458 98.8787 150.458C128.633 150.457 158.388 150.449 188.143 150.428C191.951 150.425 193.026 149.46 193.039 146.071C193.074 137.108 193.077 128.146 193.238 119.239C194.089 119.717 194.794 120.139 195.565 120.649C195.757 120.831 195.905 120.871 196.139 120.987C196.979 121.645 197.752 122.173 198.591 122.798C198.815 122.94 198.974 122.986 199.204 123.156C199.862 123.67 200.448 124.059 201.039 124.43C201.044 124.412 201.002 124.416 201.063 124.537C201.612 124.944 202.099 125.23 202.657 125.599C202.727 125.681 202.946 125.753 203.011 125.86C203.237 126.038 203.398 126.109 203.61 126.284C203.805 126.462 203.95 126.536 204.142 126.732C204.428 126.986 204.667 127.118 204.933 127.264C204.961 127.277 204.898 127.267 204.975 127.374C205.384 127.642 205.717 127.803 206.09 128.06C206.217 128.277 206.341 128.352 206.554 128.496C206.764 128.691 206.923 128.771 207.071 128.838C207.06 128.827 207.053 128.858 207.132 128.988C208.003 129.42 208.795 129.723 209.588 130.025C209.436 131.322 209.588 132.72 209.079 133.898C207.148 138.371 205.394 142.957 202.822 147.146C200.503 150.924 197.201 154.238 193.941 157.809C160.36 157.863 127.171 157.865 93.9826 157.867Z" fill="#1E2C36"/>
<path d="M186.502 164.039C187.281 166.444 184.521 166.769 183.303 167.545C179.242 170.13 174.817 172.278 170.509 174.562C168.996 175.363 167.669 175.094 166.637 173.811C166.112 173.159 165.58 172.511 164.825 171.594C164.114 171.251 163.628 171.106 163.143 171.105C150.624 171.093 138.105 171.091 125.586 171.113C124.955 171.115 124.324 171.354 123.692 171.483C123.13 171.911 122.539 172.315 122.008 172.772C119.018 175.346 118.906 175.52 115.44 173.672C111.035 171.323 106.823 168.693 102.59 166.105C102.032 165.764 101.846 164.955 101.731 164.231C107.323 164.085 112.672 164.064 118.02 164.057C135.653 164.037 153.285 164.023 171.152 164.032C176.424 164.052 181.463 164.045 186.502 164.039Z" fill="#1E2B34"/>
<path d="M108.49 70.1089C110.08 69.1112 111.536 67.8441 113.289 67.1703C117.237 65.6525 121.348 64.4617 125.365 63.0774C131.83 60.8493 138.633 60.4038 145.432 60.5186C152.054 60.6305 158.625 61.4876 164.832 63.7404C168.345 65.0152 171.863 66.2835 175.315 67.6765C176.517 68.1615 177.526 69.0122 178.831 69.8792C179.685 70.5385 180.333 71.0143 180.977 71.655C180.881 72.1678 180.831 72.804 180.688 72.8207C178.176 73.1141 175.437 73.9756 173.19 73.3956C170.628 72.7344 168.006 71.9107 165.512 72.1604C162.937 72.418 160.004 71.2277 157.677 73.2108C157.44 73.413 156.564 73.0948 156.01 72.944C155.201 72.7236 154.26 72.0508 153.647 72.2417C150.41 73.2501 147.329 72.926 144.485 71.4796C142.829 70.6368 141.514 70.3922 139.915 71.4249C139.555 71.6576 138.698 71.5414 138.205 71.3363C134.076 69.6192 130.15 69.6466 127.236 72.2933C126.915 72.1133 126.529 71.963 126.239 71.7242C124.529 70.3201 122.865 69.5798 121.057 71.6563C120.808 71.9415 120.067 71.9157 119.547 71.9959C118.831 72.1063 118.1 72.1501 117.389 72.2794C116.75 72.3956 116.13 72.5887 115.652 72.7098C115.497 71.7768 115.438 71.1515 115.28 70.5458C115.089 69.8109 114.816 69.0926 114.626 68.3469C114.675 68.3267 114.683 68.2141 114.683 68.2141C114.683 68.2141 114.577 68.3661 114.392 68.3672C113.512 68.5291 112.797 68.6467 112.122 68.8599C110.899 69.2462 109.699 69.6895 108.49 70.1089Z" fill="#E46562"/>
<path d="M108.334 70.121C109.699 69.6895 110.899 69.2462 112.122 68.8599C112.797 68.6467 113.511 68.5291 114.393 68.3675C114.577 68.3667 114.578 68.3672 114.578 68.3672C114.816 69.0926 115.089 69.8109 115.28 70.5458C115.438 71.1515 115.497 71.7768 115.652 72.7098C116.13 72.5887 116.75 72.3956 117.389 72.2794C118.1 72.1501 118.831 72.1063 119.547 71.9959C120.067 71.9157 120.808 71.9415 121.057 71.6563C122.865 69.5798 124.529 70.3201 126.239 71.7242C126.529 71.963 126.915 72.1133 127.236 72.2933C130.15 69.6466 134.076 69.6192 138.205 71.3363C138.698 71.5414 139.555 71.6576 139.915 71.4249C141.514 70.3922 142.829 70.6368 144.485 71.4796C147.329 72.926 150.41 73.2501 153.647 72.2418C154.26 72.0508 155.201 72.7236 156.01 72.944C156.564 73.0948 157.44 73.4131 157.677 73.2108C160.004 71.2277 162.937 72.418 165.512 72.1604C168.006 71.9107 170.628 72.7344 173.19 73.3956C175.437 73.9756 178.176 73.1141 180.688 72.8208C180.831 72.804 180.881 72.1678 181.118 71.646C181.357 71.4694 181.451 71.4667 181.545 71.4641C181.545 71.4641 181.724 71.4757 181.84 71.6701C182.813 72.3123 183.671 72.7601 184.529 73.2079C184.529 73.2079 184.497 73.2126 184.515 73.3505C184.864 74.1319 185.194 74.7756 185.287 75.4199C170.98 75.4208 156.912 75.3661 142.845 75.4369C129.213 75.5055 115.582 75.7031 101.983 75.6892C102.342 74.7508 102.67 73.9673 102.998 73.1839C102.998 73.1839 103.007 73.2128 103.112 73.1679C103.315 72.9952 103.413 72.8675 103.51 72.7398C103.51 72.7398 103.506 72.77 103.674 72.77C104.402 72.324 104.962 71.8782 105.522 71.4324C105.522 71.4324 105.526 71.4554 105.7 71.4627C106.412 71.1683 106.951 70.8667 107.49 70.565C107.72 70.421 107.949 70.277 108.334 70.121Z" fill="#E96763"/>
<path d="M142.289 190.04C143.256 191.409 145.056 192.573 143.73 194.531C143.699 194.576 144.277 194.938 144.667 195.391C144.78 195.821 144.796 196.013 144.796 196.412C144.783 199.436 144.787 202.252 144.785 205.271C144.752 207.247 144.725 209.02 144.699 210.793C138.369 210.867 133.475 208.706 130.467 203.692C130.056 203.007 129.913 202.2 129.763 201.164C129.809 200.062 129.739 199.245 129.81 198.36C130.292 197.887 130.632 197.481 130.973 197.076C130.723 196.98 130.473 196.885 130.222 196.79C130.037 197.335 129.851 197.88 129.536 198.372C129.153 198.203 128.899 198.087 128.645 197.971C128.645 197.971 128.647 197.757 128.677 197.446C128.731 195.216 128.753 193.296 128.902 191.348C128.943 191.043 128.857 190.765 128.737 190.285C128.688 188.165 128.673 186.246 128.658 184.328C128.685 184.208 128.711 184.089 128.969 183.813C132.54 185.248 134.511 187.878 136.158 190.9C136.53 193.189 136.836 195.329 137.344 197.432C137.885 199.673 138.616 201.88 139.276 204.261C139.856 205.319 140.425 206.217 140.995 207.115C141.808 206.21 142.178 205.462 142.199 204.707C142.274 201.964 142.263 199.218 142.223 196.474C142.206 195.246 141.974 194.019 141.97 192.792C141.968 191.875 142.175 190.957 142.289 190.04ZM131.815 195.437C131.863 195.89 131.91 196.343 131.958 196.797C132.217 196.743 132.475 196.689 132.734 196.636C132.5 196.168 132.266 195.7 131.815 195.437ZM131.931 192.384C131.752 192.645 131.572 192.905 131.393 193.166C131.678 193.233 131.964 193.301 132.249 193.368C132.245 193.063 132.241 192.758 131.931 192.384ZM130.652 192.69C130.574 192.571 130.495 192.452 130.417 192.333C130.359 192.384 130.253 192.434 130.25 192.487C130.235 192.826 130.242 193.165 130.242 193.505C130.325 193.508 130.407 193.512 130.49 193.515C130.547 193.316 130.605 193.116 130.652 192.69ZM130.251 195.556C130.22 195.415 130.189 195.274 130.159 195.133C130.122 195.272 130.086 195.412 130.251 195.556Z" fill="#0E0E0E"/>
<path d="M104.033 185.178C108.169 182.165 113.151 182.808 117.843 183.123C120.128 183.277 122.289 184.841 124.423 185.947C123.531 186.743 122.697 187.337 121.916 187.98C120.68 189 120.875 192.027 122.195 192.713C119.456 194.93 119.456 194.93 117.744 192.7C117.912 191.124 118.07 189.829 118.3 187.945C115.192 189.184 112.15 188.587 111.071 191.358C111.071 191.358 110.872 191.39 110.588 191.399C109.488 191.468 108.672 191.527 107.536 191.61C107.536 192.596 107.536 193.528 107.498 194.59C107.166 195.075 106.872 195.431 106.39 195.779C103.613 194.576 101.025 193.38 98.436 192.185C98.4367 192.011 98.4375 191.838 98.568 191.442C98.7798 190.937 98.8619 190.657 98.944 190.376C99.0907 190.189 99.2375 190.002 99.6328 189.712C102.069 189.581 101.969 188.202 101.977 186.887C101.977 186.887 101.984 186.703 102.15 186.594C102.541 186.315 102.767 186.145 102.992 185.976C103.028 185.866 103.097 185.774 103.417 185.618C103.768 185.416 103.9 185.297 104.033 185.178Z" fill="#282728"/>
<path d="M98.2867 192.302C101.025 193.38 103.613 194.576 106.381 195.948C104.242 200.738 104.912 205.146 107.686 209.539C107.573 209.752 107.517 209.833 107.461 209.914C103.428 208.85 100.787 206.536 98.9039 203.24C97.3149 200.457 97.4893 197.589 97.4939 194.691C97.4951 193.933 97.9117 193.176 98.2867 192.302Z" fill="#2F2F2F"/>
<path d="M181.97 209.863C181.571 210.161 181.183 210.706 180.773 210.718C178.121 210.797 175.461 210.82 172.812 210.705C172.333 210.684 171.642 210.005 171.494 209.525C171.264 208.777 171.416 207.939 171.413 206.807C171.437 206.306 171.454 206.136 171.449 205.943C171.427 205.919 171.464 205.97 171.637 205.964C172.512 205.494 173.214 205.03 174.076 204.519C175.202 203.644 176.169 202.817 177.204 201.946C177.361 201.834 177.428 201.754 177.591 201.557C177.791 201.185 177.876 200.918 177.97 200.647C177.978 200.644 177.98 200.628 178.14 200.574C178.554 199.97 178.807 199.419 179.187 198.792C179.532 198.327 179.749 197.937 180.002 197.406C180.493 197.069 180.947 196.873 181.42 196.883C181.448 199.638 181.4 202.19 181.489 204.738C181.549 206.449 181.803 208.155 181.97 209.863Z" fill="#090809"/>
<path d="M185.525 75.4192C185.194 74.7756 184.864 74.1319 184.518 73.3365C187.606 75.5458 190.999 77.6781 193.731 80.3325C196.45 82.9743 198.921 85.9556 200.756 89.1199C203.553 93.9423 205.951 98.9728 208.075 104.057C210.69 110.319 210.817 116.937 210.622 123.524C210.561 125.59 210.078 127.646 209.688 129.866C208.795 129.723 208.003 129.42 207.345 128.959C209.006 128.833 209.167 127.976 209.156 126.917C209.125 124.008 209.145 121.099 209.148 117.986C208.649 114.243 208.146 110.704 207.613 106.997C206.926 104.734 206.27 102.639 205.527 100.403C205.165 99.6678 204.922 99.0593 204.607 98.4813C203.457 96.373 202.283 94.2749 201.043 92.026C199.173 89.4689 197.377 87.0585 195.553 84.498C194.669 83.3814 193.923 82.3166 192.935 81.4683C190.525 79.3986 188.003 77.4291 185.525 75.4192Z" fill="#CE8783"/>
<path d="M102.82 73.2152C102.67 73.9673 102.342 74.7508 101.803 75.6945C97.7884 76.94 96.2762 80.0636 93.7987 82.5351C93.0178 83.2871 92.2689 83.9026 91.7658 84.6459C90.0864 87.1272 88.495 89.6542 86.7098 92.1988C86.1667 92.8013 85.7836 93.3687 85.2696 94.0356C84.5518 95.5376 83.9651 96.9401 83.2995 98.468C82.9419 99.1001 82.6633 99.6068 82.2596 100.24C81.5393 102.63 80.9441 104.894 80.2231 107.283C79.5282 111 78.959 114.593 78.3831 118.391C78.5403 121.283 78.814 123.97 78.8242 126.658C78.8297 128.107 79.4488 128.63 80.9882 128.528C80.2137 129.069 79.4392 129.611 78.4888 130.168C77.9955 125.341 77.1054 120.461 77.5183 115.668C77.9501 110.654 79.4129 105.674 80.832 100.769C82.3422 95.5504 85.2068 90.7782 88.7672 86.4178C91.5335 83.03 94.6632 79.8564 97.8187 76.733C99.1833 75.3822 101.02 74.3975 102.82 73.2152Z" fill="#D08B88"/>
<path d="M181.402 196.678C180.947 196.873 180.493 197.069 179.819 197.376C179.057 196.539 178.063 195.595 178.053 194.643C178.016 190.914 178.29 187.182 178.449 183.452C179.054 183.375 179.659 183.299 180.285 183.429C180.529 184.597 180.751 185.558 181.029 186.679C183.686 188.335 185.529 186.703 187.639 185.644C187.854 185.647 187.94 185.647 188.047 185.69C188.069 185.732 188.195 185.739 188.195 185.739C188.195 185.739 188.024 185.649 188.021 185.536C188.015 185.346 188.012 185.27 188.011 185.197C188.014 185.199 188.002 185.194 188.191 185.206C188.653 185.857 189.215 186.538 189.105 187.121C189.019 187.578 188.1 187.913 187.515 188.456C186.476 189.416 185.472 190.223 184.588 190.933C186.309 190.933 188.419 190.933 190.529 190.933C187.833 191.081 185.137 191.23 182.072 191.515C181.603 193.327 181.502 195.002 181.402 196.678Z" fill="#131313"/>
<path d="M160.795 201.067C160.042 202.562 159.569 204.241 158.48 205.515C155.807 208.643 152.237 210.599 147.429 210.559C147.409 209.729 147.584 209.114 147.767 208.516C147.775 208.533 147.735 208.547 147.901 208.575C148.129 208.432 148.19 208.261 148.259 208.109C148.266 208.128 148.24 208.095 148.417 208.157C150.214 207.159 151.835 206.1 153.574 204.981C154.615 204.178 155.539 203.435 156.513 202.651C156.076 202.236 155.697 201.876 155.315 201.36C154.8 200.414 154.289 199.625 153.804 198.709C153.993 198.38 154.157 198.178 154.344 198.017C154.366 198.057 154.477 198.066 154.477 198.066C154.477 198.066 154.304 197.993 154.369 197.882C154.566 197.549 154.698 197.328 154.988 197.171C156.425 198.375 157.703 199.515 158.981 200.654C158.852 200.792 158.724 200.93 158.595 201.067C159.328 201.067 160.062 201.067 160.795 201.067Z" fill="#686868"/>
<path d="M139.264 204.101C138.616 201.88 137.885 199.673 137.344 197.432C136.836 195.329 136.53 193.189 136.273 190.728C136.53 188.647 136.649 186.904 136.767 185.16C138.072 186.098 139.376 187.036 140.554 188.268C140.351 193 140.314 197.439 140.156 201.876C140.129 202.625 139.575 203.36 139.264 204.101Z" fill="#444444"/>
<path d="M107.745 209.406C104.912 205.146 104.242 200.738 106.57 195.955C106.872 195.431 107.166 195.075 107.661 194.576C108.079 194.455 108.295 194.478 108.511 194.501C108.516 195.81 108.521 197.119 108.585 198.721C108.734 199.127 108.841 199.228 108.964 199.316C108.964 199.316 109.017 199.509 109.04 199.787C109.22 202.576 109.39 205.087 109.525 207.599C109.582 208.665 109.259 209.501 107.745 209.406Z" fill="#BDBDBD"/>
<path d="M178.238 183.448C178.29 187.182 178.016 190.914 178.053 194.643C178.063 195.595 179.057 196.539 179.782 197.517C179.749 197.937 179.532 198.327 179.021 198.853C178.477 199.536 178.228 200.082 177.98 200.628C177.98 200.628 177.978 200.644 177.835 200.732C177.62 201.1 177.548 201.381 177.477 201.662C177.428 201.754 177.361 201.834 177.035 201.871C176.416 201.471 175.716 201.107 175.708 200.733C175.661 198.357 175.782 195.979 175.818 193.601C175.843 191.942 175.808 190.282 175.823 188.622C175.838 186.907 175.882 185.193 175.914 183.479C176.618 183.467 177.322 183.455 178.238 183.448Z" fill="#1E1D1E"/>
<path d="M120.739 199.729C123.18 200.928 125.621 202.128 128.188 203.389C126.7 205.977 125.014 208.042 121.666 208.903C121.036 208.277 120.504 207.742 120.443 207.169C120.197 204.84 120.082 202.499 119.976 200.161C119.969 200.026 120.473 199.873 120.739 199.729Z" fill="#1E1D1E"/>
<path d="M144.813 196.205C144.796 196.013 144.78 195.821 144.76 195.485C145.964 193.164 147.17 190.987 148.637 188.849C149.215 190.112 149.533 191.337 149.862 192.607C149.975 192.544 150.397 192.31 150.719 192.131C151.415 192.642 152.06 193.116 152.73 193.774C152.595 195.348 153.416 197.089 150.92 197.654C151.575 198.084 152.155 198.465 152.754 198.857C152.771 198.868 152.8 198.84 152.674 198.861C152.482 199.013 152.416 199.143 152.272 199.385C152.22 199.875 152.246 200.253 152.222 200.755C152.007 201.094 151.842 201.309 151.526 201.48C150.97 200.598 150.621 199.735 150.147 198.928C149.039 197.042 146.75 196.877 144.813 196.205ZM150.145 195.753C150.082 195.419 150.019 195.085 149.956 194.751C149.75 194.811 149.544 194.87 149.338 194.93C149.536 195.265 149.735 195.6 150.145 195.753Z" fill="#333333"/>
<path d="M94.0693 158.044C127.171 157.865 160.36 157.863 193.782 157.865C193.431 158.014 192.848 158.287 192.265 158.287C159.81 158.307 127.355 158.305 94.9001 158.3C94.652 158.3 94.4041 158.248 94.0693 158.044Z" fill="#B5B7BF"/>
<path d="M155.847 183.915C157.568 183.763 159.29 183.612 161.202 183.646C161.347 184.155 161.301 184.477 161.205 184.836C161.088 184.991 161.122 185.086 161.282 185.369C161.313 187.809 161.317 190.041 161.202 192.353C160.513 192.248 159.869 192.158 159.388 191.863C158.015 191.022 156.71 190.098 155.309 189.112C155.107 188.925 154.974 188.834 154.91 188.601C155.488 186.977 157.959 185.782 155.847 183.915Z" fill="#818182"/>
<path d="M169.361 183.521C170.298 183.427 171.236 183.333 172.299 183.534C172.104 191.209 171.784 198.59 171.464 205.97C171.464 205.97 171.427 205.919 171.335 205.923C171.242 205.927 171.012 205.903 171.012 205.903C170.971 201.745 170.977 197.586 170.839 193.431C170.816 192.747 170.157 192.08 169.597 191.164C169.388 188.456 169.375 185.988 169.361 183.521Z" fill="#4E4E4E"/>
<path d="M175.713 183.468C175.882 185.193 175.838 186.907 175.823 188.622C175.808 190.282 175.843 191.942 175.818 193.601C175.782 195.979 175.661 198.357 175.708 200.733C175.716 201.107 176.416 201.471 176.966 201.915C176.169 202.817 175.202 203.644 174.079 204.316C173.917 197.274 173.912 190.389 173.906 183.503C174.442 183.488 174.977 183.473 175.713 183.468Z" fill="#2F2F2F"/>
<path d="M173.723 183.484C173.912 190.389 173.917 197.274 173.919 204.363C173.214 205.03 172.512 205.494 171.637 205.964C171.784 198.59 172.104 191.209 172.432 183.62C172.806 183.429 173.173 183.447 173.723 183.484Z" fill="#3F3F3F"/>
<path d="M139.276 204.261C139.575 203.36 140.129 202.625 140.156 201.876C140.314 197.439 140.351 193 140.553 188.425C141.194 188.776 141.712 189.262 142.259 189.895C142.175 190.957 141.968 191.875 141.97 192.792C141.974 194.019 142.206 195.246 142.223 196.474C142.263 199.218 142.274 201.964 142.199 204.707C142.178 205.462 141.808 206.21 140.995 207.115C140.425 206.217 139.856 205.319 139.276 204.261Z" fill="#1E1D1E"/>
<path d="M160.88 200.914C160.062 201.067 159.328 201.067 158.595 201.067C158.724 200.93 158.852 200.792 158.981 200.654C157.703 199.515 156.425 198.375 154.878 197.114C154.182 196.821 153.377 196.631 153.387 196.482C153.469 195.223 153.699 193.97 154.058 192.736C156.044 193.172 156.387 194.369 156.224 195.788C156.02 195.86 155.918 195.924 155.816 195.988C155.875 196.008 155.961 196.061 155.99 196.043C156.112 195.968 156.217 195.871 156.483 195.754C157.295 195.753 158.011 195.645 158.593 195.841C159.538 196.159 160.396 196.676 161.347 197.204C161.491 197.436 161.625 197.507 161.804 197.511C161.525 198.594 161.246 199.677 160.88 200.914Z" fill="#707070"/>
<path d="M170.918 164.006C153.285 164.023 135.653 164.037 118.02 164.057C112.672 164.064 107.323 164.085 101.743 164.063C102.179 163.878 102.847 163.603 103.516 163.602C125.828 163.587 148.14 163.597 170.685 163.72C170.919 163.836 170.918 164.006 170.918 164.006Z" fill="#818182"/>
<path d="M122.376 192.717C120.875 192.027 120.68 189 121.916 187.98C122.697 187.337 123.531 186.743 124.51 186.078C124.68 186.03 124.673 186.052 124.72 186.161C124.899 186.36 125.031 186.45 125.162 186.541C126.024 187.256 126.886 187.972 127.952 188.878C128.129 189.547 128.103 190.025 128.077 190.503C126.237 191.242 124.397 191.981 122.376 192.717Z" fill="#1E1D1E"/>
<path d="M169.142 183.501C169.375 185.988 169.388 188.456 169.391 191.127C168.35 191.347 167.32 191.365 166.08 191.142C165.864 188.443 165.857 185.985 165.849 183.528C166.874 183.512 167.899 183.497 169.142 183.501Z" fill="#767676"/>
<path d="M165.635 183.504C165.857 185.985 165.864 188.443 165.864 191.103C163.67 192.278 162.72 191.221 162.413 189.541C162.204 188.402 162.486 187.199 162.321 186.049C162.006 183.864 163.057 183.103 165.635 183.504Z" fill="#A0A0A0"/>
<path d="M136.658 185.03C136.649 186.904 136.53 188.647 136.297 190.563C134.511 187.878 132.54 185.248 129.023 183.636C129.289 183.4 129.821 182.922 130.161 183.011C132.314 183.571 134.425 184.256 136.658 185.03Z" fill="#8A8A8A"/>
<path d="M120.642 199.6C120.473 199.873 119.969 200.026 119.976 200.161C120.082 202.499 120.197 204.84 120.443 207.169C120.504 207.742 121.036 208.277 121.488 208.919C120.757 209.436 119.891 209.863 118.829 210.321C118.632 210.353 118.575 210.354 118.575 210.173C118.559 208.729 118.647 207.458 118.5 206.208C118.314 204.64 117.935 203.089 117.623 201.369C117.591 201.099 117.577 200.992 117.562 200.884C118.067 200.342 118.492 199.707 119.112 199.301C119.388 199.12 120.056 199.4 120.642 199.6Z" fill="#2F2F2F"/>
<path d="M112.598 202.39C112.961 202.397 113.323 202.404 113.878 202.63C114.256 205.332 114.442 207.817 114.614 210.319C114.601 210.337 114.635 210.305 114.612 210.406C114.589 210.508 114.546 210.713 114.546 210.713C113.189 210.736 111.832 210.759 110.317 210.596C110.627 209.559 111.332 208.741 111.505 207.845C111.739 206.634 111.455 205.351 111.611 204.12C111.687 203.519 112.254 202.965 112.598 202.39Z" fill="#767676"/>
<path d="M112.519 202.243C112.254 202.965 111.687 203.519 111.611 204.12C111.455 205.351 111.739 206.634 111.505 207.845C111.332 208.741 110.627 209.559 110.093 210.561C109.232 210.536 108.438 210.361 107.553 210.05C107.517 209.833 107.573 209.752 107.686 209.539C109.259 209.501 109.582 208.665 109.525 207.599C109.39 205.087 109.22 202.576 109.069 199.882C110.196 200.499 111.318 201.297 112.519 202.243Z" fill="#A0A0A0"/>
<path d="M152.706 193.591C152.06 193.116 151.415 192.642 150.719 192.131C150.397 192.31 149.975 192.544 149.862 192.607C149.533 191.337 149.215 190.112 148.774 188.751C149.757 187.657 150.864 186.7 152.236 185.801C152.631 187.273 152.76 188.687 152.915 190.256C152.862 191.471 152.784 192.531 152.706 193.591Z" fill="#3F3F3F"/>
<path d="M123.922 171.501C124.324 171.354 124.955 171.114 125.586 171.113C138.105 171.091 150.624 171.093 163.143 171.105C163.628 171.106 164.114 171.251 164.739 171.471C151.303 171.582 137.727 171.551 123.922 171.501Z" fill="#3F3F3F"/>
<path d="M111.251 191.308C112.15 188.587 115.192 189.184 118.299 187.945C118.07 189.829 117.912 191.124 117.673 192.563C115.539 192.223 113.485 191.74 111.251 191.308Z" fill="#4E4E4E"/>
<path d="M152.889 190.1C152.76 188.687 152.631 187.273 152.386 185.738C153.348 185.069 154.427 184.521 155.676 183.944C157.959 185.782 155.488 186.977 154.862 188.746C154.127 189.389 153.508 189.745 152.889 190.1Z" fill="#686868"/>
<path d="M115.073 202.315C115.573 201.995 116.074 201.675 116.791 201.395C117.008 201.434 117.135 201.55 117.123 201.752C117.277 204.742 117.443 207.531 117.396 210.323C116.333 210.318 115.484 210.312 114.635 210.305C114.635 210.305 114.601 210.337 114.726 210.199C116.922 207.523 115.949 204.918 115.073 202.315Z" fill="#444444"/>
<path d="M114.902 202.338C115.949 204.918 116.922 207.523 114.739 210.181C114.442 207.817 114.256 205.332 114.058 202.645C114.275 202.416 114.503 202.388 114.902 202.338Z" fill="#4E4E4E"/>
<path d="M190.654 190.805C188.419 190.933 186.309 190.933 184.588 190.933C185.472 190.223 186.476 189.416 187.731 188.451C188.997 188.289 190.013 188.286 191.028 188.283C190.946 189.081 190.863 189.879 190.654 190.805Z" fill="#090809"/>
<path d="M180.973 186.519C180.751 185.558 180.529 184.597 180.399 183.528C182.223 183.498 183.954 183.575 185.845 183.91C186.002 184.361 186 184.554 185.802 184.751C184.563 185.197 183.521 185.639 182.378 186.137C182.153 186.279 182.053 186.385 181.811 186.509C181.42 186.513 181.197 186.516 180.973 186.519Z" fill="#0E0E0E"/>
<path d="M191.029 188.106C190.013 188.286 188.997 188.289 187.766 188.297C188.1 187.913 189.019 187.578 189.105 187.121C189.215 186.538 188.653 185.857 188.1 185.11C187.552 184.923 187.285 184.846 187.014 184.619C187.01 184.271 187.01 184.073 187.009 183.874C190.119 182.899 190.613 183.18 190.653 185.823C190.663 186.526 190.898 187.226 191.029 188.106Z" fill="#0E0E0E"/>
<path d="M181.42 196.883C181.502 195.002 181.603 193.327 181.836 191.514C181.969 197.403 181.969 203.429 181.969 209.659C181.803 208.155 181.549 206.449 181.489 204.738C181.4 202.19 181.448 199.638 181.42 196.883Z" fill="#3F3F3F"/>
<path d="M161.83 197.307C161.625 197.507 161.491 197.436 161.374 197.003C161.336 195.23 161.329 193.752 161.321 192.274C161.317 190.041 161.313 187.809 161.293 185.278C161.278 184.98 161.255 184.798 161.255 184.798C161.301 184.477 161.347 184.155 161.393 183.67C161.555 184.16 161.85 184.812 161.856 185.466C161.893 189.345 161.863 193.225 161.83 197.307Z" fill="#BDBDBD"/>
<path d="M171.152 164.032C170.918 164.006 170.919 163.836 170.919 163.751C176.051 163.674 181.182 163.682 186.407 163.864C181.463 164.045 176.424 164.052 171.152 164.032Z" fill="#8A8A8A"/>
<path d="M128.103 190.706C128.103 190.025 128.129 189.547 128.116 188.893C128.133 187.292 128.188 185.869 128.451 184.387C128.673 186.246 128.688 188.165 128.702 190.432C128.727 190.98 128.751 191.178 128.776 191.376C128.753 193.296 128.731 195.216 128.684 197.339C128.483 195.332 128.306 193.121 128.103 190.706Z" fill="#E1E8E7"/>
<path d="M144.858 210.804C144.725 209.02 144.752 207.247 144.965 205.319C145.53 206.596 145.907 208.027 146.214 209.596C145.981 210.093 145.818 210.452 145.654 210.811C145.442 210.812 145.23 210.813 144.858 210.804Z" fill="#3F3F3F"/>
<path d="M108.545 194.343C108.295 194.478 108.079 194.455 107.699 194.446C107.536 193.528 107.536 192.596 107.536 191.61C108.672 191.527 109.488 191.468 110.487 191.405C109.973 192.33 109.276 193.258 108.545 194.343Z" fill="#2F2F2F"/>
<path d="M101.834 186.968C101.969 188.202 102.069 189.581 99.6858 189.608C100.224 188.755 100.957 187.902 101.834 186.968Z" fill="#2F2F2F"/>
<path d="M129.669 198.428C129.739 199.245 129.809 200.062 129.755 200.994C129.301 200.178 128.971 199.247 128.644 198.143C128.899 198.087 129.153 198.203 129.537 198.373C129.667 198.427 129.669 198.428 129.669 198.428Z" fill="#131313"/>
<path d="M145.75 210.923C145.817 210.452 145.981 210.093 146.351 209.531C146.958 209.052 147.358 208.775 147.759 208.499C147.584 209.114 147.409 209.729 147.218 210.51C146.75 210.796 146.297 210.915 145.75 210.923Z" fill="#BDBDBD"/>
<path d="M184.468 73.0668C183.671 72.7601 182.813 72.3123 181.921 71.703C182.727 72.0029 183.567 72.4643 184.468 73.0668Z" fill="#CE8783"/>
<path d="M181.515 71.304C181.451 71.4667 181.357 71.4694 181.122 71.4811C180.333 71.0143 179.685 70.5385 179.011 69.9203C179.818 70.2333 180.651 70.6887 181.515 71.304Z" fill="#CE8783"/>
<path d="M105.353 71.4453C104.962 71.8782 104.402 72.324 103.657 72.7659C104.043 72.3274 104.613 71.8928 105.353 71.4453Z" fill="#D08B88"/>
<path d="M114.612 210.406C115.484 210.312 116.333 210.318 117.557 210.323C118.146 210.331 118.36 210.343 118.575 210.354C118.575 210.354 118.632 210.353 118.656 210.338C117.446 210.475 116.214 210.627 114.763 210.745C114.546 210.713 114.589 210.508 114.612 210.406Z" fill="#4E4E4E"/>
<path d="M107.314 70.5682C106.951 70.8667 106.412 71.1683 105.687 71.4598C106.046 71.1569 106.592 70.8641 107.314 70.5682Z" fill="#D08B88"/>
<path d="M186.841 183.875C187.01 184.073 187.01 184.271 187.011 184.615C187.012 184.76 187.017 184.766 186.884 184.764C186.664 184.763 186.576 184.763 186.365 184.761C186.242 184.758 185.998 184.747 185.998 184.747C186 184.554 186.002 184.361 186.004 184.022C186.227 183.877 186.451 183.876 186.841 183.875Z" fill="#131313"/>
<path d="M98.809 190.468C98.8619 190.657 98.7798 190.937 98.5667 191.312C98.5151 191.123 98.5946 190.841 98.809 190.468Z" fill="#2F2F2F"/>
<path d="M102.847 186.017C102.767 186.145 102.541 186.315 102.163 186.502C102.241 186.366 102.471 186.212 102.847 186.017Z" fill="#2F2F2F"/>
<path d="M170.994 206.026C171.012 205.903 171.242 205.927 171.357 205.947C171.454 206.136 171.437 206.306 171.407 206.602C171.255 206.536 171.116 206.343 170.994 206.026Z" fill="#3F3F3F"/>
<path d="M103.893 185.212C103.9 185.297 103.768 185.416 103.498 185.574C103.491 185.492 103.622 185.369 103.893 185.212Z" fill="#2F2F2F"/>
<path d="M117.448 200.953C117.577 200.991 117.591 201.099 117.496 201.373C117.303 201.542 117.219 201.546 117.135 201.55C117.135 201.55 117.008 201.434 116.949 201.371C117.038 201.212 117.186 201.118 117.448 200.953Z" fill="#444444"/>
<path d="M103.37 72.7664C103.413 72.8675 103.315 72.9952 103.095 73.1702C103.059 73.076 103.144 72.9345 103.37 72.7664Z" fill="#D08B88"/>
<path d="M108.993 199.195C108.841 199.228 108.734 199.127 108.605 198.916C108.718 198.903 108.87 198.989 108.993 199.195Z" fill="#A0A0A0"/>
<path d="M125.123 186.43C125.03 186.45 124.899 186.36 124.712 186.169C124.799 186.153 124.942 186.236 125.123 186.43Z" fill="#282728"/>
<path d="M193.093 119.183C193.077 128.146 193.074 137.108 193.039 146.071C193.026 149.46 191.951 150.425 188.143 150.428C158.388 150.449 128.633 150.457 98.8787 150.458C95.9991 150.458 94.6175 149.181 94.5994 146.369C94.551 138.875 94.5829 131.382 94.5665 123.889C94.5634 122.495 94.4839 121.102 94.3674 119.416C94.3559 118.62 94.4605 118.116 94.47 117.612C94.5233 114.779 95.4105 113.766 97.8732 113.772C100.351 113.778 101.421 114.87 101.376 117.61C101.315 121.254 101.062 124.896 101.043 128.539C101.036 129.741 101.499 130.944 101.686 132.303C101.501 135.151 101.3 137.842 101.27 140.533C101.216 145.392 100.89 144.459 105.928 144.597C107.568 144.642 108.106 144.064 108.079 142.652C107.987 137.902 108.008 133.149 108.016 128.19C107.994 126.034 107.941 124.087 107.935 121.943C107.954 120.272 107.929 118.798 107.953 117.12C108.204 113.822 108.405 110.728 108.71 107.594C108.942 107.475 109.031 107.372 109.302 107.24C114.434 107.035 114.583 107.197 114.616 111.502C114.636 114.261 114.807 117.019 114.831 119.956C114.685 126.721 114.606 133.307 114.557 139.893C114.521 144.617 114.54 144.536 120.031 144.609C122.082 144.636 122.608 143.972 122.594 142.312C122.522 133.229 122.538 124.146 122.545 114.863C122.613 108.949 122.66 103.234 122.876 97.4585C126.801 95.5605 129.13 96.7821 129.175 100.567C129.222 104.449 129.335 108.331 129.36 112.401C129.276 122.64 129.262 132.691 129.217 142.742C129.211 144.004 129.672 144.585 131.254 144.576C139.625 144.529 147.997 144.543 156.368 144.582C157.775 144.588 158.28 144.14 158.271 142.908C158.197 132.637 158.171 122.366 158.178 111.891C158.243 107.499 158.329 103.311 158.251 99.1262C158.211 97.0057 159.523 96.4369 161.56 96.4981C163.742 96.5637 164.833 97.7998 164.841 100.153C164.86 105 164.869 109.847 164.85 114.898C164.804 124.179 164.758 133.257 164.832 142.335C164.838 143.072 165.653 144.424 166.121 144.434C168.282 144.48 170.455 144.163 172.616 143.924C172.709 143.914 172.775 143.385 172.773 143.098C172.719 135.414 172.655 127.731 172.655 119.843C172.685 116.578 172.553 113.514 172.65 110.456C172.739 107.663 173.558 107.075 176.58 107.179C177.162 107.199 177.743 107.257 178.325 107.283C178.326 107.268 178.316 107.304 178.35 107.477C178.606 108.787 179.005 109.923 179.021 111.063C179.101 116.83 179.082 122.597 179.09 128.568C179.077 133.309 179.02 137.847 179.119 142.382C179.135 143.104 179.741 144.352 180.262 144.433C181.96 144.698 183.749 144.593 185.491 144.487C185.831 144.467 186.392 143.805 186.39 143.441C186.376 139.792 186.265 136.144 186.251 132.284C186.366 127.107 186.413 122.142 186.458 117.176C186.478 114.825 187.352 113.886 189.596 113.814C191.879 113.739 192.964 114.81 193.038 117.212C193.058 117.869 193.075 118.526 193.093 119.183Z" fill="#E1E8E7"/>
<path d="M80.9834 128.519C79.4488 128.63 78.8297 128.107 78.8242 126.658C78.8141 123.97 78.5404 121.283 78.6 118.391C81.7677 118.185 84.7121 118.205 87.6554 118.166C88.2919 118.157 89.0182 118.065 89.5413 117.782C91.0935 116.942 92.1608 117.272 92.9602 118.829C93.0017 119.302 93.0349 119.572 93.068 119.842C92.944 120.015 92.82 120.187 92.4875 120.319C92.1479 120.394 92.0167 120.509 91.8855 120.624C88.6376 123.023 85.3897 125.421 81.8312 127.882C81.3406 128.126 81.1605 128.308 80.9805 128.489C80.9805 128.489 80.9785 128.509 80.9834 128.519Z" fill="#EF7871"/>
<path d="M209.145 118.191C209.145 121.099 209.125 124.008 209.156 126.917C209.167 127.976 209.006 128.833 207.266 128.829C207.053 128.858 207.06 128.827 207.014 128.727C206.813 128.545 206.658 128.462 206.502 128.38C206.341 128.352 206.217 128.277 206.076 127.906C205.647 127.527 205.273 127.397 204.898 127.267C204.898 127.267 204.961 127.277 204.924 127.121C204.623 126.847 204.359 126.729 204.095 126.61C203.95 126.536 203.805 126.462 203.545 126.178C203.268 125.896 203.107 125.825 202.946 125.753C202.946 125.753 202.726 125.681 202.647 125.449C202.046 124.95 201.524 124.683 201.002 124.416C201.002 124.416 201.044 124.412 201.033 124.27C200.392 123.762 199.762 123.397 199.132 123.032C198.974 122.986 198.815 122.94 198.584 122.636C197.698 121.871 196.885 121.363 196.072 120.856C195.905 120.871 195.757 120.831 195.564 120.486C195.182 119.552 194.866 118.868 194.763 118.185C199.699 118.187 204.422 118.189 209.145 118.191Z" fill="#EF7871"/>
<path d="M93.2566 119.8C93.0349 119.572 93.0018 119.302 93.0861 118.694C93.2856 117.714 93.4084 117.073 93.4422 116.429C93.5505 114.368 94.9324 112.828 98.0832 112.421C99.1897 112.278 100.907 113.472 101.695 114.455C102.319 115.236 101.952 116.626 102.018 117.939C102.177 119.328 102.343 120.523 102.507 121.895C103.445 123.911 102.843 125.742 102.536 127.594C102.379 128.543 102.764 129.611 104.136 128.993C105.595 128.337 107.312 127.629 107.055 125.641C106.906 124.494 107.025 123.321 107.168 122.156C107.505 122.148 107.697 122.144 107.889 122.14C107.941 124.087 107.994 126.034 107.849 128.209C105.683 129.674 103.715 130.91 101.747 132.147C101.499 130.944 101.037 129.741 101.043 128.539C101.062 124.896 101.315 121.254 101.376 117.61C101.421 114.87 100.351 113.778 97.8732 113.772C95.4105 113.766 94.5233 114.779 94.47 117.612C94.4605 118.116 94.3559 118.62 94.2146 119.28C93.9043 119.543 93.6747 119.651 93.2566 119.8Z" fill="#ED847C"/>
<path d="M194.55 118.184C194.866 118.868 195.182 119.551 195.499 120.398C194.794 120.139 194.089 119.717 193.238 119.239C193.075 118.526 193.058 117.869 193.038 117.212C192.964 114.81 191.879 113.739 189.596 113.814C187.352 113.886 186.479 114.825 186.458 117.176C186.413 122.142 186.366 127.107 186.105 132.232C185.211 131.96 184.531 131.527 183.9 131.052C183.949 131.008 184.048 130.921 184.242 130.922C184.789 130.37 185.422 129.828 185.448 129.264C185.557 126.9 185.484 124.529 185.485 121.963C185.331 120.422 185.169 119.077 185.009 117.554C185.473 115.852 184.999 113.961 187.508 113.314C192.341 112.068 194.551 113.554 194.55 118.184Z" fill="#E58983"/>
<path d="M196.139 120.987C196.885 121.363 197.698 121.871 198.518 122.54C197.752 122.173 196.979 121.645 196.139 120.987Z" fill="#E58983"/>
<path d="M199.204 123.156C199.762 123.397 200.392 123.762 201.028 124.288C200.448 124.059 199.862 123.67 199.204 123.156Z" fill="#E58983"/>
<path d="M201.063 124.537C201.524 124.683 202.046 124.95 202.577 125.366C202.099 125.23 201.612 124.944 201.063 124.537Z" fill="#E58983"/>
<path d="M204.975 127.374C205.273 127.397 205.647 127.527 206.036 127.811C205.717 127.803 205.384 127.642 204.975 127.374Z" fill="#CE8783"/>
<path d="M81.1191 128.465C81.1605 128.308 81.3406 128.126 81.664 127.929C81.6241 128.09 81.441 128.266 81.1191 128.465Z" fill="#D08B88"/>
<path d="M204.142 126.732C204.359 126.729 204.623 126.847 204.896 127.108C204.667 127.118 204.428 126.986 204.142 126.732Z" fill="#CE8783"/>
<path d="M206.553 128.496C206.658 128.462 206.813 128.545 207.025 128.739C206.923 128.771 206.764 128.691 206.553 128.496Z" fill="#CE8783"/>
<path d="M92.0467 120.601C92.0167 120.509 92.1478 120.394 92.3621 120.33C92.3661 120.447 92.287 120.512 92.0467 120.601Z" fill="#ED847C"/>
<path d="M203.011 125.86C203.107 125.825 203.268 125.896 203.494 126.074C203.398 126.109 203.237 126.038 203.011 125.86Z" fill="#CE8783"/>
<path d="M114.577 68.367L114.682 68.2141C114.682 68.2141 114.674 68.3272 114.626 68.3475C114.578 68.3677 114.577 68.367 114.577 68.367Z" fill="#E96763"/>
<path d="M93.9433 82.457C96.2762 80.0636 97.7885 76.94 101.771 75.8493C115.582 75.7031 129.213 75.5055 142.845 75.4369C156.912 75.3661 170.98 75.4208 185.287 75.4199C188.003 77.4291 190.525 79.3986 192.935 81.4683C193.923 82.3166 194.669 83.3814 195.519 84.6544C194.495 86.3438 193.419 87.107 191.869 85.3999C191.549 85.0471 190.912 84.7594 190.395 84.7233C181.395 84.0948 172.397 83.408 163.385 82.9602C159.03 82.7438 154.645 83.0122 150.273 83.0266C147.787 83.0348 145.298 82.9068 142.814 82.9592C139.264 83.0341 135.719 83.2681 132.169 83.3296C130.851 83.3524 129.524 82.9477 128.205 82.965C121.506 83.0524 114.808 83.1945 108.111 83.357C103.391 83.4715 98.6737 83.649 93.9545 83.798C93.9545 83.798 93.953 83.7971 93.9534 83.6298C93.9502 83.1273 93.9468 82.7922 93.9433 82.457Z" fill="#F4716A"/>
<path d="M147.767 208.516C147.358 208.775 146.958 209.052 146.422 209.393C145.907 208.027 145.53 206.596 144.972 205.117C144.787 202.252 144.783 199.436 144.796 196.412C146.75 196.877 149.039 197.042 150.147 198.928C150.621 199.735 150.97 200.598 151.549 201.628C151.24 202.6 150.757 203.379 150.155 204.061C149.526 203.319 149.016 202.674 148.505 202.029C148.338 202.123 148.172 202.216 148.005 202.309C148.423 203.217 148.84 204.125 149.311 205.207C148.989 206.285 148.614 207.19 148.24 208.095C148.24 208.095 148.266 208.128 148.11 208.112C147.881 208.247 147.808 208.397 147.735 208.547C147.735 208.547 147.775 208.533 147.767 208.516ZM147.824 199.84C147.732 200.255 147.64 200.67 147.548 201.085C147.764 201.093 147.979 201.102 148.195 201.11C148.158 200.671 148.121 200.233 147.824 199.84Z" fill="#282728"/>
<path d="M131.923 195.335C132.266 195.7 132.5 196.168 132.734 196.636C132.475 196.689 132.217 196.743 131.958 196.797C131.91 196.343 131.863 195.89 131.923 195.335Z" fill="#131313"/>
<path d="M132.084 192.419C132.241 192.758 132.245 193.063 132.249 193.368C131.964 193.301 131.678 193.233 131.393 193.166C131.572 192.905 131.752 192.645 132.084 192.419Z" fill="#131313"/>
<path d="M129.666 198.426C129.851 197.88 130.037 197.335 130.222 196.79C130.472 196.885 130.723 196.98 130.973 197.076C130.632 197.481 130.292 197.887 129.81 198.36C129.669 198.428 129.667 198.427 129.666 198.426Z" fill="#131313"/>
<path d="M130.657 192.803C130.605 193.116 130.547 193.316 130.49 193.515C130.407 193.512 130.325 193.508 130.242 193.505C130.242 193.165 130.235 192.826 130.25 192.487C130.253 192.434 130.359 192.384 130.417 192.333C130.495 192.452 130.574 192.571 130.657 192.803Z" fill="#131313"/>
<path d="M128.902 191.348C128.751 191.178 128.727 190.98 128.737 190.635C128.857 190.765 128.943 191.043 128.902 191.348Z" fill="#131313"/>
<path d="M130.149 195.554C130.086 195.412 130.122 195.272 130.158 195.133C130.188 195.274 130.218 195.415 130.149 195.554Z" fill="#131313"/>
<path d="M132.427 190.262C132.44 190.257 132.414 190.267 132.427 190.262Z" fill="#131313"/>
<path d="M130.915 189.834C130.922 189.846 130.909 189.823 130.915 189.834Z" fill="#131313"/>
<path d="M131.416 199.535C131.422 199.547 131.409 199.523 131.416 199.535Z" fill="#131313"/>
<path d="M178.14 200.574C178.228 200.082 178.477 199.536 178.893 198.929C178.807 199.419 178.554 199.97 178.14 200.574Z" fill="#2F2F2F"/>
<path d="M177.591 201.557C177.549 201.381 177.62 201.1 177.827 200.735C177.876 200.918 177.791 201.185 177.591 201.557Z" fill="#2F2F2F"/>
<path d="M93.7987 82.5351C93.9468 82.7922 93.9502 83.1273 93.8202 83.6973C93.5848 84.2659 93.4828 84.5997 93.3809 84.9334C93.5988 84.9306 93.8168 84.9277 94.0348 84.9248C94.0082 84.5493 93.9817 84.1738 93.9551 83.7983C98.6737 83.649 103.391 83.4715 108.111 83.357C114.808 83.1946 121.506 83.0524 128.205 82.965C129.524 82.9477 130.851 83.3524 132.169 83.3296C135.719 83.2681 139.264 83.0341 142.814 82.9592C145.298 82.9068 147.787 83.0348 150.273 83.0266C154.645 83.0122 159.03 82.7438 163.385 82.9602C172.397 83.408 181.395 84.0948 190.395 84.7233C190.912 84.7594 191.549 85.0471 191.869 85.3999C193.419 87.107 194.495 86.3438 195.547 84.8046C197.377 87.0585 199.173 89.4689 200.805 92.0267C162.717 92.1707 124.793 92.1672 86.8698 92.1638C88.495 89.6542 90.0864 87.1272 91.7658 84.6459C92.2689 83.9026 93.0178 83.2872 93.7987 82.5351Z" fill="#F57670"/>
<path d="M86.7098 92.1988C124.793 92.1672 162.717 92.1707 200.879 92.1735C202.283 94.2749 203.457 96.373 204.607 98.4813C204.922 99.0593 205.165 99.6678 205.292 100.405C192.063 100.549 178.982 100.551 165.896 100.364C165.855 96.7436 165.266 95.9814 162.242 95.4482C159.692 94.9985 158.208 95.8234 156.868 98.3992C156.564 98.9835 156.178 99.5354 155.638 100.178C154.459 100.353 153.473 100.534 152.486 100.537C145.045 100.562 137.603 100.551 130.156 100.376C129.647 98.852 129.144 97.5042 128.719 96.0112C128.83 95.2693 128.864 94.6725 128.897 94.0758C128.63 93.9879 128.363 93.9001 128.096 93.8123C127.615 94.4437 127.133 95.0751 126.463 95.7074C125.896 95.7053 125.518 95.7023 125.113 95.5791C124.928 95.3329 124.77 95.207 124.613 95.0811C124.454 95.289 124.295 95.4969 124 95.7696C123.449 96.2316 123.034 96.6286 122.442 97.018C121.665 96.8239 121.064 96.6374 120.23 96.3788C120.013 97.8369 119.811 99.1898 119.373 100.545C107.945 100.548 96.7524 100.561 85.56 100.531C84.5011 100.528 83.4431 100.259 82.3846 100.113C82.6633 99.6068 82.9419 99.1001 83.4827 98.441C84.2967 96.8378 84.8486 95.387 85.4006 93.9361C85.7837 93.3687 86.1667 92.8013 86.7098 92.1988Z" fill="#F6827C"/>
<path d="M165.901 100.553C178.982 100.551 192.063 100.549 205.379 100.546C206.27 102.639 206.926 104.734 207.376 106.997C197.934 107.164 188.698 107.164 179.269 107.171C178.823 107.221 178.57 107.263 178.316 107.304C178.316 107.304 178.326 107.268 178.316 107.104C176.842 106.761 175.017 106.019 173.995 106.525C172.043 107.491 170.191 107.113 168.269 107.181C166.594 107.24 165.808 106.64 165.872 105.133C165.938 103.608 165.896 102.08 165.901 100.553Z" fill="#F37670"/>
<path d="M179.462 107.164C188.698 107.164 197.934 107.164 207.407 107.165C208.146 110.704 208.649 114.243 209.148 117.986C204.422 118.189 199.699 118.187 194.763 118.185C194.551 113.554 192.341 112.068 187.508 113.314C184.999 113.961 185.473 115.852 184.804 117.551C183.221 117.585 181.845 117.444 180.469 117.109C181.313 113.571 180.594 110.351 179.462 107.164Z" fill="#F6827A"/>
<path d="M82.2596 100.24C83.4431 100.259 84.5011 100.528 85.56 100.531C96.7524 100.561 107.945 100.548 119.536 100.487C120.456 100.623 121.427 100.814 121.43 101.015C121.457 102.955 121.943 105.204 120.974 106.71C120.474 107.487 117.304 106.988 115.342 106.97C114.799 106.965 114.252 106.437 113.722 106.457C112.143 106.516 110.268 105.408 109.08 107.241C109.031 107.372 108.942 107.475 108.57 107.58C108.235 107.601 108.141 107.595 107.881 107.479C106.804 107.301 105.894 107.177 104.983 107.175C96.7718 107.157 88.5604 107.161 80.3489 107.158C80.9441 104.894 81.5393 102.63 82.2596 100.24Z" fill="#F37670"/>
<path d="M80.2231 107.283C88.5604 107.161 96.7719 107.157 104.983 107.175C105.894 107.177 106.804 107.301 107.703 107.523C107.313 108.361 106.68 109.023 106.603 109.731C106.313 112.392 106.204 115.069 105.804 117.741C104.396 117.744 103.21 117.745 102.025 117.746C101.952 116.626 102.319 115.236 101.695 114.455C100.907 113.472 99.1897 112.278 98.0832 112.421C94.9324 112.828 93.5505 114.368 93.4422 116.429C93.4084 117.073 93.2856 117.714 93.0777 118.491C92.1608 117.272 91.0935 116.942 89.5413 117.782C89.0182 118.065 88.2919 118.157 87.6554 118.166C84.7121 118.205 81.7677 118.185 78.6068 118.186C78.959 114.593 79.5282 111 80.2231 107.283Z" fill="#F5837C"/>
<path d="M85.2696 94.0356C84.8486 95.387 84.2967 96.8378 83.5616 98.3156C83.9651 96.9401 84.5518 95.5376 85.2696 94.0356Z" fill="#ED847C"/>
<path d="M185.802 184.751C185.998 184.747 186.242 184.758 186.42 184.82C186.737 184.843 186.877 184.805 187.017 184.766C187.017 184.766 187.012 184.76 187.015 184.764C187.285 184.846 187.552 184.923 187.911 185.097C188.002 185.194 188.014 185.199 187.908 185.252C187.671 185.396 187.575 185.509 187.51 185.643C185.529 186.703 183.686 188.335 181.029 186.679C181.197 186.516 181.42 186.513 181.915 186.458C182.314 186.319 182.412 186.211 182.478 186.082C183.521 185.639 184.563 185.197 185.802 184.751ZM185.423 185.546C185.376 185.454 185.343 185.352 185.272 185.277C185.25 185.254 185.126 185.305 185.048 185.322C185.114 185.408 185.18 185.493 185.423 185.546Z" fill="#1E1D1E"/>
<path d="M187.639 185.644C187.574 185.509 187.671 185.396 187.905 185.25C188.012 185.27 188.015 185.346 188.017 185.532C188.016 185.641 188.025 185.648 188.025 185.648C187.94 185.647 187.854 185.646 187.639 185.644Z" fill="#0E0E0E"/>
<path d="M188.02 185.645C188.024 185.649 188.196 185.74 188.196 185.74C188.196 185.74 188.069 185.733 188.047 185.69C188.025 185.648 188.016 185.641 188.02 185.645Z" fill="#1E1D1E"/>
<path d="M150.273 204.158C150.757 203.379 151.24 202.6 151.7 201.672C151.842 201.309 152.007 201.094 152.376 200.743C153.493 200.911 154.406 201.214 155.319 201.517C155.697 201.876 156.076 202.236 156.513 202.651C155.539 203.435 154.615 204.178 153.381 204.961C152.317 204.719 151.563 204.438 150.675 204.157C150.452 204.157 150.363 204.158 150.273 204.158Z" fill="#8A8A8A"/>
<path d="M152.915 190.256C153.508 189.745 154.127 189.389 154.794 188.888C154.974 188.834 155.107 188.925 155.292 189.273C154.857 190.591 154.371 191.653 153.884 192.716C153.699 193.97 153.469 195.223 153.387 196.482C153.377 196.631 154.182 196.821 154.719 197.049C154.698 197.328 154.566 197.549 154.374 197.878C154.314 197.986 154.322 197.977 154.322 197.977C154.157 198.178 153.993 198.38 153.631 198.718C153.2 198.851 152.968 198.848 152.736 198.846C152.155 198.465 151.575 198.084 150.92 197.654C153.416 197.089 152.595 195.348 152.73 193.774C152.784 192.531 152.862 191.471 152.915 190.256Z" fill="#8A8A8A"/>
<path d="M150.809 204.157C151.563 204.438 152.317 204.719 153.263 205.02C151.835 206.1 150.214 207.159 148.417 208.157C148.614 207.19 148.989 206.285 149.458 205.153C149.972 204.67 150.391 204.413 150.809 204.157Z" fill="#BDBDBD"/>
<path d="M152.754 198.857C152.968 198.848 153.2 198.851 153.605 198.844C154.289 199.625 154.8 200.414 155.315 201.36C154.406 201.214 153.493 200.911 152.426 200.62C152.246 200.253 152.22 199.875 152.366 199.329C152.657 199.075 152.744 198.967 152.8 198.84C152.8 198.84 152.771 198.868 152.754 198.857Z" fill="#707070"/>
<path d="M147.901 208.575C147.808 208.397 147.881 208.247 148.103 208.093C148.19 208.261 148.129 208.432 147.901 208.575Z" fill="#BDBDBD"/>
<path d="M154.309 197.989C154.304 197.993 154.478 198.066 154.478 198.066C154.478 198.066 154.367 198.058 154.344 198.017C154.322 197.977 154.314 197.986 154.309 197.989Z" fill="#8A8A8A"/>
<path d="M150.039 195.844C149.735 195.6 149.536 195.265 149.338 194.93C149.544 194.87 149.75 194.811 149.956 194.751C150.019 195.085 150.082 195.419 150.039 195.844Z" fill="#3F3F3F"/>
<path d="M152.674 198.861C152.744 198.967 152.657 199.075 152.444 199.218C152.416 199.143 152.482 199.013 152.674 198.861Z" fill="#8A8A8A"/>
<path d="M150.05 196.895C150.067 196.888 150.033 196.902 150.05 196.895Z" fill="#3F3F3F"/>
<path d="M154.058 192.736C154.371 191.653 154.857 190.591 155.361 189.368C156.71 190.098 158.015 191.022 159.388 191.863C159.869 192.158 160.513 192.248 161.202 192.353C161.329 193.752 161.336 195.23 161.317 196.909C160.396 196.676 159.538 196.159 158.593 195.841C158.011 195.645 157.295 195.753 156.483 195.753C156.327 195.782 156.325 195.781 156.325 195.781C156.387 194.369 156.044 193.172 154.058 192.736Z" fill="#767676"/>
<path d="M161.205 184.836C161.255 184.798 161.278 184.98 161.266 185.071C161.122 185.086 161.088 184.991 161.205 184.836Z" fill="#767676"/>
<path d="M156.327 195.782C156.217 195.871 156.112 195.968 155.99 196.043C155.961 196.061 155.875 196.008 155.816 195.988C155.918 195.924 156.02 195.86 156.223 195.788C156.325 195.78 156.327 195.782 156.327 195.782Z" fill="#767676"/>
<path d="M117.123 201.752C117.219 201.546 117.303 201.542 117.513 201.535C117.935 203.089 118.314 204.64 118.5 206.208C118.647 207.458 118.559 208.729 118.575 210.173C118.36 210.343 118.146 210.331 117.771 210.32C117.443 207.531 117.277 204.742 117.123 201.752Z" fill="#333333"/>
<path d="M182.378 186.137C182.412 186.211 182.314 186.319 182.082 186.457C182.053 186.385 182.153 186.279 182.378 186.137Z" fill="#131313"/>
<path d="M186.884 184.764C186.877 184.804 186.737 184.843 186.542 184.823C186.576 184.763 186.664 184.763 186.884 184.764Z" fill="#0E0E0E"/>
<path d="M158.13 112.096C158.171 122.366 158.197 132.637 158.271 142.908C158.28 144.14 157.775 144.588 156.368 144.582C147.996 144.543 139.625 144.529 131.254 144.576C129.672 144.585 129.211 144.004 129.217 142.742C129.262 132.691 129.276 122.64 129.512 112.345C130.68 111.341 131.635 110.582 132.669 109.79C132.748 109.757 132.815 109.617 132.988 109.573C135.794 107.672 138.562 105.939 141.018 103.915C142.838 102.415 144.377 102.033 146.251 103.639C146.254 103.654 146.289 103.651 146.354 103.765C146.668 103.998 146.917 104.117 147.161 104.216C147.157 104.195 147.117 104.22 147.184 104.343C147.751 104.778 148.252 105.091 148.755 105.415C148.758 105.425 148.782 105.426 148.846 105.547C149.168 105.801 149.426 105.933 149.744 106.184C150.265 106.611 150.725 106.92 151.261 107.363C153.602 109.03 155.866 110.563 158.13 112.096Z" fill="#1A2933"/>
<path d="M172.592 120.048C172.655 127.731 172.719 135.414 172.773 143.098C172.775 143.385 172.709 143.914 172.616 143.924C170.455 144.163 168.282 144.48 166.121 144.434C165.653 144.424 164.838 143.072 164.832 142.335C164.758 133.257 164.804 124.179 165.013 114.93C167.669 116.523 170.13 118.285 172.592 120.048Z" fill="#202E37"/>
<path d="M122.524 115.063C122.538 124.146 122.522 133.229 122.594 142.312C122.608 143.972 122.082 144.636 120.031 144.609C114.54 144.536 114.521 144.617 114.557 139.893C114.606 133.307 114.685 126.721 115.001 119.946C117.676 118.192 120.1 116.628 122.524 115.063Z" fill="#202E37"/>
<path d="M172.655 119.843C170.13 118.285 167.669 116.523 165.044 114.727C164.869 109.847 164.86 105 164.841 100.153C164.833 97.7998 163.742 96.5637 161.56 96.4981C159.523 96.4368 158.211 97.0057 158.251 99.1262C158.329 103.311 158.243 107.499 158.178 111.891C155.866 110.563 153.602 109.03 151.478 107.346C152.347 107.186 153.074 107.178 153.813 107.329C154.682 108.314 155.541 109.14 156.4 109.966C156.646 109.854 156.893 109.742 157.139 109.63C157.198 108.664 157.257 107.697 157.32 106.525C157.325 104.749 157.453 103.168 157.258 101.617C157.19 101.073 156.329 100.605 155.831 100.102C156.178 99.5354 156.564 98.9835 156.868 98.3992C158.208 95.8234 159.692 94.9985 162.242 95.4482C165.266 95.9814 165.855 96.7436 165.896 100.364C165.896 102.08 165.938 103.608 165.872 105.133C165.808 106.64 166.594 107.24 168.269 107.181C170.191 107.113 172.043 107.491 173.995 106.525C175.017 106.019 176.842 106.761 178.315 107.119C177.743 107.257 177.162 107.199 176.58 107.179C173.558 107.075 172.739 107.663 172.65 110.456C172.553 113.514 172.685 116.578 172.655 119.843Z" fill="#E58983"/>
<path d="M183.851 131.095C184.531 131.527 185.211 131.96 186.036 132.444C186.265 136.144 186.376 139.792 186.39 143.441C186.392 143.805 185.831 144.467 185.491 144.487C183.749 144.593 181.96 144.698 180.262 144.433C179.741 144.352 179.135 143.104 179.119 142.382C179.02 137.847 179.077 133.309 179.26 128.569C180.908 129.276 182.38 130.186 183.851 131.095Z" fill="#253039"/>
<path d="M122.545 114.863C120.1 116.628 117.676 118.192 115.081 119.767C114.807 117.019 114.636 114.261 114.616 111.502C114.583 107.197 114.434 107.035 109.302 107.24C110.268 105.408 112.143 106.516 113.722 106.457C114.252 106.437 114.799 106.965 115.342 106.97C117.304 106.988 120.474 107.487 120.974 106.71C121.943 105.204 121.457 102.955 121.43 101.015C121.427 100.814 120.456 100.623 119.771 100.485C119.811 99.1898 120.013 97.8369 120.23 96.3788C121.064 96.6374 121.665 96.8239 122.46 97.1421C122.672 97.3558 122.689 97.4378 122.706 97.5199C122.66 103.234 122.613 108.949 122.545 114.863Z" fill="#ED847C"/>
<path d="M101.686 132.303C103.715 130.91 105.683 129.674 107.819 128.418C108.008 133.149 107.987 137.902 108.079 142.652C108.106 144.064 107.568 144.642 105.928 144.597C100.89 144.459 101.216 145.392 101.27 140.533C101.3 137.842 101.501 135.151 101.686 132.303Z" fill="#202E37"/>
<path d="M183.9 131.052C182.38 130.186 180.908 129.276 179.267 128.365C179.082 122.597 179.101 116.83 179.021 111.063C179.005 109.923 178.606 108.787 178.35 107.477C178.57 107.263 178.823 107.221 179.269 107.171C180.594 110.351 181.313 113.571 180.468 117.311C180.469 119.191 180.472 120.673 180.505 122.33C180.622 123.494 180.982 124.544 180.727 125.462C180.348 126.826 180.812 127.573 182 128.407C182.883 129.027 183.379 130.068 184.048 130.921C184.048 130.921 183.949 131.008 183.9 131.052Z" fill="#E58983"/>
<path d="M102.018 117.939C103.21 117.745 104.396 117.744 105.966 117.724C106.869 117.579 107.386 117.452 107.904 117.325C107.929 118.798 107.954 120.272 107.935 121.943C107.697 122.144 107.505 122.148 106.965 122.146C105.247 122 103.877 121.86 102.508 121.719C102.343 120.523 102.177 119.328 102.018 117.939Z" fill="#EF7871"/>
<path d="M122.876 97.4585C122.689 97.4378 122.672 97.3558 122.637 97.1497C123.034 96.6286 123.449 96.2315 124.167 95.7708C124.694 95.7046 124.917 95.702 125.14 95.6994C125.518 95.7023 125.896 95.7053 126.637 95.7128C127.547 95.8637 128.094 96.01 128.641 96.1564C129.144 97.5042 129.647 98.852 130.155 100.581C130.162 102.884 130.163 104.806 130.161 106.918C130.158 108.03 130.158 108.953 130.158 110.015C131.161 109.936 131.876 109.879 132.59 109.823C131.635 110.582 130.68 111.341 129.572 112.157C129.335 108.331 129.222 104.449 129.175 100.567C129.13 96.7821 126.801 95.5605 122.876 97.4585Z" fill="#CE8783"/>
<path d="M107.953 117.12C107.386 117.452 106.869 117.579 106.189 117.723C106.204 115.069 106.313 112.393 106.603 109.731C106.68 109.023 107.313 108.361 107.869 107.633C108.141 107.595 108.235 107.601 108.467 107.62C108.405 110.728 108.204 113.822 107.953 117.12Z" fill="#ED847C"/>
<path d="M102.507 121.895C103.877 121.86 105.247 122.001 106.82 122.151C107.025 123.321 106.906 124.494 107.055 125.641C107.312 127.629 105.595 128.337 104.136 128.993C102.764 129.611 102.379 128.543 102.536 127.594C102.843 125.742 103.445 123.911 102.507 121.895Z" fill="#F6827A"/>
<path d="M184.242 130.922C183.379 130.068 182.883 129.027 182 128.407C180.812 127.573 180.348 126.826 180.727 125.462C180.982 124.544 180.622 123.494 180.733 122.329C182.446 122.157 183.962 122.159 185.478 122.16C185.484 124.529 185.557 126.9 185.448 129.264C185.422 129.828 184.789 130.37 184.242 130.922Z" fill="#F6827A"/>
<path d="M185.485 121.963C183.962 122.159 182.446 122.157 180.702 122.156C180.472 120.673 180.469 119.191 180.468 117.506C181.845 117.444 183.221 117.585 184.802 117.728C185.169 119.077 185.331 120.422 185.485 121.963Z" fill="#EF7871"/>
<path d="M150.675 204.157C150.391 204.413 149.972 204.67 149.406 204.979C148.84 204.125 148.423 203.217 148.005 202.309C148.172 202.216 148.338 202.123 148.505 202.029C149.016 202.674 149.526 203.319 150.155 204.061C150.363 204.158 150.452 204.157 150.675 204.157Z" fill="#333333"/>
<path d="M147.954 199.817C148.121 200.233 148.158 200.671 148.195 201.11C147.979 201.102 147.764 201.093 147.548 201.084C147.64 200.67 147.732 200.255 147.954 199.817Z" fill="#333333"/>
<path d="M93.9545 83.798C93.9817 84.1738 94.0082 84.5493 94.0348 84.9248C93.8168 84.9277 93.5988 84.9306 93.3809 84.9334C93.4828 84.5997 93.5848 84.2659 93.8199 83.8647C93.953 83.7971 93.9545 83.798 93.9545 83.798Z" fill="#F4716A"/>
<path d="M130.164 106.729C130.163 104.806 130.162 102.884 130.161 100.756C137.603 100.551 145.045 100.562 152.486 100.537C153.473 100.534 154.459 100.353 155.638 100.178C156.329 100.605 157.19 101.073 157.258 101.617C157.453 103.168 157.325 104.749 157.12 106.523C155.878 106.875 154.84 107.023 153.802 107.17C153.074 107.178 152.347 107.186 151.402 107.211C150.725 106.92 150.265 106.611 149.7 106.048C149.324 105.672 149.053 105.549 148.782 105.426C148.782 105.426 148.758 105.425 148.739 105.261C148.186 104.805 147.652 104.512 147.117 104.22C147.117 104.22 147.157 104.195 147.117 104.086C146.814 103.869 146.552 103.76 146.289 103.651C146.289 103.651 146.254 103.654 146.23 103.481C144.592 101.403 143.209 101.385 140.599 103.129C138.511 104.524 136.362 105.848 134.029 107.191C132.6 107.029 131.382 106.879 130.164 106.729Z" fill="#F37670"/>
<path d="M128.719 96.0112C128.094 96.01 127.547 95.8637 126.826 95.7119C127.133 95.0751 127.615 94.4437 128.096 93.8123C128.363 93.9001 128.63 93.9879 128.897 94.0758C128.864 94.6725 128.83 95.2693 128.719 96.0112Z" fill="#ED847C"/>
<path d="M125.113 95.5791C124.917 95.702 124.694 95.7046 124.303 95.706C124.295 95.4969 124.454 95.289 124.613 95.0811C124.77 95.207 124.928 95.3329 125.113 95.5791Z" fill="#ED847C"/>
<path d="M185.334 185.563C185.18 185.493 185.114 185.408 185.048 185.322C185.126 185.305 185.25 185.254 185.272 185.277C185.343 185.352 185.376 185.454 185.334 185.563Z" fill="#131313"/>
<path d="M134.24 107.203C136.362 105.848 138.511 104.524 140.599 103.129C143.209 101.385 144.592 101.403 146.226 103.465C144.377 102.033 142.838 102.415 141.018 103.915C138.562 105.939 135.794 107.672 133.01 109.417C133.32 108.604 133.78 107.904 134.24 107.203Z" fill="#CE8783"/>
<path d="M134.029 107.191C133.78 107.904 133.32 108.604 132.838 109.461C132.815 109.617 132.748 109.757 132.669 109.79C131.876 109.879 131.161 109.936 130.158 110.015C130.158 108.953 130.158 108.03 130.161 106.918C131.382 106.879 132.6 107.029 134.029 107.191Z" fill="#ED847C"/>
<path d="M147.184 104.343C147.652 104.512 148.186 104.805 148.737 105.251C148.252 105.091 147.751 104.778 147.184 104.343Z" fill="#CE8783"/>
<path d="M148.846 105.547C149.053 105.549 149.324 105.672 149.639 105.931C149.426 105.933 149.168 105.801 148.846 105.547Z" fill="#CE8783"/>
<path d="M146.354 103.765C146.552 103.76 146.814 103.869 147.122 104.108C146.917 104.117 146.668 103.998 146.354 103.765Z" fill="#CE8783"/>
<path d="M153.813 107.329C154.84 107.023 155.878 106.875 157.115 106.729C157.257 107.697 157.198 108.664 157.139 109.63C156.893 109.742 156.646 109.854 156.4 109.966C155.541 109.14 154.682 108.314 153.813 107.329Z" fill="#F6827A"/>
</g>
<defs>
<clipPath id="clip0_1_2">
<rect width="251" height="220" fill="white" transform="translate(18 45)"/>
</clipPath>
</defs>
</svg>
