<svg version="1.1" id="Layer_1" xmlns="http://www.w3.org/2000/svg" xmlns:xlink="http://www.w3.org/1999/xlink" x="0px" y="0px"
	 width="100%" viewBox="0 0 499 499" enable-background="new 0 0 499 499" xml:space="preserve">
<path fill="#000000" opacity="1.000000" stroke="none" 
	d="
M500.000000,179.000000 
	C500.000000,286.333313 500.000000,393.166595 500.000000,499.999939 
	C333.666718,499.999939 167.333466,499.999939 1.000147,499.999969 
	C1.000098,333.666779 1.000098,167.333542 1.000049,1.000236 
	C167.333191,1.000157 333.666382,1.000157 499.999786,1.000079 
	C500.000000,60.166668 500.000000,119.333336 500.000000,179.000000 
M169.441589,63.039639 
	C169.271118,63.360531 169.100647,63.681423 168.997543,63.991810 
	C168.997543,63.991810 168.979263,63.926117 168.271652,64.068367 
	C165.046951,66.678970 161.396286,68.912392 158.683350,71.976173 
	C152.410110,79.060707 146.188080,86.259018 140.688614,93.943176 
	C133.610336,103.833328 127.915375,114.657486 124.913109,126.495071 
	C122.091812,137.619141 119.183762,148.915100 118.325256,160.287277 
	C117.504425,171.160385 119.273857,182.229050 119.862961,194.019409 
	C122.209099,208.332809 127.736984,221.499908 134.583313,234.143219 
	C138.963058,242.231461 143.330780,250.403595 151.401886,256.805084 
	C151.894913,256.867859 152.387939,256.985565 152.880981,256.985626 
	C217.402969,256.995270 281.924957,257.001526 346.446930,256.956482 
	C347.606750,256.955658 348.766083,256.336334 350.557831,255.752594 
	C356.260193,247.771667 362.823944,240.254242 367.434479,231.685822 
	C372.547363,222.183853 376.035309,211.782166 379.874817,201.637497 
	C380.886536,198.964447 380.584137,195.794037 381.283142,192.130142 
	C381.859528,187.456299 382.819580,182.792435 382.941467,178.106766 
	C383.330048,163.166321 383.077667,148.156281 377.877777,133.952713 
	C373.655792,122.420189 368.888916,111.010132 363.328674,100.071877 
	C359.680359,92.894699 354.767426,86.132690 349.361481,80.140495 
	C343.929718,74.119751 337.185211,69.283333 331.003784,63.991352 
	C331.003784,63.991352 331.067474,63.980606 330.824402,63.340466 
	C329.154480,62.293983 327.484589,61.247501 325.490631,60.051628 
	C325.490631,60.051628 325.134827,60.025280 325.014771,59.299419 
	C323.357971,58.266533 321.701141,57.233646 319.327820,56.014591 
	C317.146118,54.463959 315.138855,52.534515 312.749695,51.434513 
	C305.887177,48.274929 298.892029,45.398148 291.909088,42.506664 
	C279.568909,37.396893 266.505432,35.452866 253.341049,35.199104 
	C239.823776,34.938538 226.300247,35.949081 213.446304,41.002750 
	C205.459946,44.142689 197.288651,46.843624 189.439240,50.286240 
	C185.954575,51.814541 183.060089,54.688488 179.279907,57.006237 
	C178.823608,57.332874 178.367310,57.659508 177.210724,58.000336 
	C176.125351,58.664425 175.039978,59.328510 174.005829,60.005730 
	C174.005829,60.005730 173.998444,59.953377 173.324860,60.012089 
	C172.191071,60.997761 171.057266,61.983429 169.990051,62.987507 
	C169.990051,62.987507 169.998169,62.918907 169.441589,63.039639 
M254.162292,376.597443 
	C255.061310,376.326172 255.960327,376.054932 257.699219,376.006775 
	C266.869171,375.609314 273.967041,371.172028 279.280365,364.077881 
	C281.445374,361.187225 282.385498,357.379181 284.223389,353.292938 
	C284.778900,350.835999 285.334442,348.379059 285.992432,344.999725 
	C286.007355,336.200470 286.067017,327.400818 285.993500,318.602295 
	C285.981110,317.119110 285.393860,315.640778 284.313873,314.053192 
	C280.891205,314.396851 277.468567,314.740509 273.367371,315.217072 
	C271.223114,316.459473 269.078827,317.701904 266.339172,319.231110 
	C264.139618,321.401428 261.940063,323.571716 259.193024,326.189423 
	C256.795349,331.125946 254.397659,336.062469 251.629776,340.572723 
	C251.045303,340.086731 249.896515,339.265778 249.957581,339.162933 
	C252.592682,334.723480 249.015625,332.083069 246.973816,328.317200 
	C245.945099,327.213562 244.916382,326.109894 243.893829,324.291962 
	C241.301025,322.164429 238.708237,320.036865 235.681396,317.318359 
	C231.457672,315.857727 227.261810,314.303253 222.981522,313.033142 
	C222.305435,312.832550 221.248047,313.916931 220.152084,315.207550 
	C220.099365,315.478699 220.046661,315.749878 219.170044,316.287720 
	C219.059509,319.516357 218.948959,322.744995 218.185593,325.908844 
	C216.471527,324.285980 214.757446,322.663147 212.889252,320.536713 
	C212.605621,320.348236 212.321976,320.159790 212.070923,319.931946 
	C212.070923,319.931946 212.084473,319.882690 211.737961,319.284485 
	C207.330688,317.184937 203.034500,313.636932 198.492920,313.288635 
	C189.164398,312.573181 179.260757,311.114380 170.482544,318.104797 
	C170.221375,318.382935 169.960205,318.661102 169.377045,319.135590 
	C169.176346,319.301117 169.040237,319.508911 168.391891,319.943726 
	C167.933258,320.293915 167.474640,320.644073 166.964615,321.408020 
	C166.964615,321.408020 166.950302,321.824707 166.380707,322.193207 
	C164.922623,324.128204 163.464539,326.063171 161.795700,328.467804 
	C161.503952,328.891907 161.212204,329.316010 160.383682,330.153656 
	C160.225815,330.794037 160.067932,331.434448 159.915131,332.663788 
	C159.913589,333.056335 159.912048,333.448853 159.317200,334.373657 
	C158.868271,336.090912 158.040085,337.807617 158.037674,339.525482 
	C158.028473,346.098785 157.681793,352.605591 160.840851,358.916443 
	C164.583557,366.393250 169.835144,371.641937 178.216858,374.674011 
	C179.795319,375.069672 181.373779,375.465332 183.844070,376.023376 
	C186.542007,375.971130 189.239929,375.918884 192.802414,376.015015 
	C195.253220,375.671387 197.704041,375.327759 200.842682,374.906677 
	C202.564514,373.938629 204.286362,372.970551 206.718018,371.930878 
	C212.748291,369.809509 216.100494,365.124329 219.059280,359.255310 
	C213.955078,356.393890 209.102722,353.673645 203.865601,350.366760 
	C202.891815,350.206360 201.563461,349.572205 201.016281,349.981750 
	C199.783676,350.904236 198.937897,352.343628 197.479675,353.888519 
	C197.186295,354.103363 196.892914,354.318207 195.969513,354.643097 
	C194.975006,355.368195 193.980499,356.093292 192.306183,356.923492 
	C191.852539,356.985291 191.398911,357.047119 190.228012,357.037567 
	C189.507385,357.021210 188.786774,357.004822 187.752350,356.322327 
	C185.520828,354.510956 183.289307,352.699585 180.945267,350.453461 
	C180.945267,350.453461 180.840317,350.016785 180.955582,349.467896 
	C180.653976,349.274384 180.352386,349.080872 179.971024,348.001831 
	C179.960495,345.033234 179.949966,342.064606 180.074158,338.379395 
	C181.460678,336.274994 182.847214,334.170593 184.634674,332.038727 
	C184.634674,332.038727 185.030136,331.967163 185.744125,331.737030 
	C189.828110,332.832794 193.912094,333.928558 198.275101,335.649750 
	C201.699554,340.068909 201.699554,340.068909 207.864441,335.055298 
	C211.522430,333.378937 215.180435,331.702606 218.941055,330.951111 
	C219.293625,335.965973 219.646194,340.980865 219.971466,346.479950 
	C219.971466,346.479950 219.968323,346.964905 219.961243,347.748901 
	C220.616333,349.860809 221.271439,351.972748 221.957794,354.854431 
	C222.488770,356.557251 222.773651,358.389435 223.590012,359.942230 
	C229.569702,371.316071 239.299316,376.216980 252.516541,376.095490 
	C252.938599,376.093781 253.360657,376.092102 254.162292,376.597443 
M335.331726,314.995148 
	C334.887909,314.996399 334.444092,314.997650 333.366638,314.488068 
	C329.924591,314.312927 326.482574,314.137817 322.589050,313.513519 
	C321.385895,313.687012 320.182770,313.860474 318.140472,314.014557 
	C316.740417,314.041199 315.340332,314.067841 313.143616,314.047119 
	C312.078674,314.081299 311.013763,314.115479 309.222168,314.065399 
	C308.491577,314.023987 307.761017,313.982574 306.504120,313.550354 
	C304.640137,313.763763 302.776123,313.977173 300.043335,314.101288 
	C298.006042,314.136230 295.968719,314.171143 293.078430,314.098999 
	C288.379517,313.243652 286.290894,314.969299 286.916168,319.925018 
	C287.245087,322.532074 286.685181,325.262238 287.099335,327.844940 
	C287.710449,331.655945 289.599030,334.054260 294.806427,332.024323 
	C296.854309,331.983521 298.902161,331.942719 301.770813,332.073364 
	C302.496338,333.604279 303.806427,335.118134 303.851654,336.668884 
	C304.126465,346.093384 304.113159,355.526245 304.122955,365.515320 
	C304.401093,365.954132 304.679199,366.392914 304.980103,367.759796 
	C304.999329,369.574341 304.696686,371.475525 305.153473,373.172272 
	C305.446808,374.261963 306.821075,375.802521 307.774475,375.849487 
	C313.040314,376.108887 318.328674,376.057343 323.601379,375.878937 
	C324.415100,375.851410 325.187958,374.616150 325.976593,373.014465 
	C325.977295,359.345764 325.977997,345.677094 326.915894,332.013947 
	C332.275574,331.676544 337.635254,331.339142 343.494446,330.420959 
	C343.659210,328.611572 343.823944,326.802155 343.990570,324.186432 
	C343.728821,322.595215 343.262726,321.006683 343.241669,319.412262 
	C343.162415,313.416992 342.181213,312.780945 335.331726,314.995148 
M303.082092,269.015961 
	C258.724396,269.000488 214.366714,268.976288 170.009064,269.011658 
	C168.680374,269.012726 167.352158,269.637787 165.977402,270.734894 
	C166.689911,272.079071 167.059525,273.914764 168.169540,274.689148 
	C176.583481,280.558868 184.958466,286.523102 193.714996,291.850739 
	C200.605484,296.042999 200.829559,295.648682 206.773453,289.809509 
	C207.828522,288.773041 209.002533,287.857666 211.033463,286.969818 
	C238.023453,287.040100 265.013428,287.110382 292.343445,287.742432 
	C293.395416,289.217041 294.454254,290.686768 295.497894,292.167267 
	C297.549438,295.077606 300.188202,295.687866 303.195831,293.869110 
	C311.760315,288.690186 320.557617,283.817291 328.630981,277.953369 
	C331.052673,276.194458 336.537903,275.457153 334.613861,269.209778 
	C324.413055,269.192047 314.212280,269.174316 303.082092,269.015961 
z"/>
<path fill="#1E2C36" opacity="1.000000" stroke="none" 
	d="
M151.056992,256.003448 
	C143.330780,250.403595 138.963058,242.231461 134.583313,234.143219 
	C127.736984,221.499908 122.209099,208.332809 120.233673,193.580780 
	C122.144142,191.913528 123.683891,190.684906 125.213943,189.435364 
	C125.204239,189.414444 125.208145,189.369049 125.483810,189.314407 
	C126.123657,188.861588 126.487831,188.463394 127.184547,187.957916 
	C133.974030,182.410233 140.430969,176.969849 147.208389,171.476776 
	C147.686142,171.275238 147.843399,171.126404 148.249878,170.953217 
	C148.745651,170.537933 148.992188,170.147003 149.613617,169.660522 
	C150.444916,169.321014 150.901321,169.077087 151.661697,169.142914 
	C152.053619,172.613037 152.211761,175.773270 152.217819,178.933807 
	C152.250473,195.929993 152.187073,212.926590 152.283203,229.922318 
	C152.319305,236.302460 155.065887,239.197815 160.790771,239.197556 
	C219.944519,239.194901 279.098267,239.176666 338.252014,239.129257 
	C345.821960,239.123184 347.959625,236.933243 347.986115,229.246353 
	C348.056213,208.918121 348.061890,188.589676 348.381165,168.387543 
	C350.072357,169.471512 351.475586,170.429260 353.007019,171.584869 
	C353.390289,171.998688 353.684021,172.089478 354.148560,172.351440 
	C355.818359,173.845490 357.356079,175.043213 359.024323,176.459213 
	C359.469757,176.781540 359.784637,176.885590 360.242279,177.272049 
	C361.550018,178.436981 362.714996,179.319489 363.889862,180.161789 
	C363.899750,180.121582 363.817383,180.130173 363.938507,180.404938 
	C365.028717,181.328323 365.997803,181.976959 367.105957,182.812744 
	C367.245056,182.999893 367.682312,183.162079 367.811523,183.404449 
	C368.260681,183.808746 368.580658,183.970657 369.001221,184.367065 
	C369.389801,184.770020 369.677765,184.938492 370.059814,185.383286 
	C370.628052,185.959518 371.102203,186.259415 371.631622,186.589539 
	C371.686859,186.619781 371.562775,186.597153 371.714600,186.838593 
	C372.528595,187.446106 373.190765,187.812195 373.931580,188.394592 
	C374.184448,188.886978 374.431610,189.057068 374.853394,189.383118 
	C375.271820,189.825928 375.588562,190.006790 375.882996,190.160858 
	C375.860718,190.134048 375.845520,190.204346 376.003113,190.499527 
	C377.735535,191.480484 379.310394,192.166245 380.885223,192.852020 
	C380.584137,195.794037 380.886536,198.964447 379.874817,201.637497 
	C376.035309,211.782166 372.547363,222.183853 367.434479,231.685822 
	C362.823944,240.254242 356.260193,247.771667 349.778137,255.871094 
	C283.017975,255.994202 217.037491,255.998810 151.056992,256.003448 
z"/>
<path fill="#1E2B34" opacity="1.000000" stroke="none" 
	d="
M334.989258,270.001099 
	C336.537903,275.457153 331.052673,276.194458 328.630981,277.953369 
	C320.557617,283.817291 311.760315,288.690186 303.195831,293.869110 
	C300.188202,295.687866 297.549438,295.077606 295.497894,292.167267 
	C294.454254,290.686768 293.395416,289.217041 291.894623,287.139313 
	C290.481018,286.360016 289.516357,286.031036 288.551392,286.029968 
	C263.663025,286.002777 238.774582,285.997040 213.886292,286.048035 
	C212.630829,286.050598 211.376480,286.594543 210.121613,286.886383 
	C209.002533,287.857666 207.828522,288.773041 206.773453,289.809509 
	C200.829559,295.648682 200.605484,296.042999 193.714996,291.850739 
	C184.958466,286.523102 176.583481,280.558868 168.169540,274.689148 
	C167.059525,273.914764 166.689911,272.079071 166.461426,270.436951 
	C177.578690,270.106354 188.211914,270.057861 198.845154,270.044006 
	C233.899414,269.998383 268.953674,269.965240 304.472900,269.987244 
	C314.954987,270.031799 324.972107,270.016449 334.989258,270.001099 
z"/>
<path fill="#E46562" opacity="1.000000" stroke="none" 
	d="
M179.897720,56.951622 
	C183.060089,54.688488 185.954575,51.814541 189.439240,50.286240 
	C197.288651,46.843624 205.459946,44.142689 213.446304,41.002750 
	C226.300247,35.949081 239.823776,34.938538 253.341049,35.199104 
	C266.505432,35.452866 279.568909,37.396893 291.909088,42.506664 
	C298.892029,45.398148 305.887177,48.274929 312.749695,51.434513 
	C315.138855,52.534515 317.146118,54.463959 319.739227,56.430660 
	C321.438232,57.925926 322.725861,59.005127 324.007019,60.458366 
	C323.814911,61.621510 323.716370,63.064434 323.430603,63.102516 
	C318.437653,63.767902 312.991577,65.722008 308.524536,64.406357 
	C303.432587,62.906673 298.219971,61.038376 293.260742,61.604637 
	C288.142365,62.189072 282.310608,59.489143 277.684174,63.987270 
	C277.212402,64.445961 275.471252,63.724049 274.371338,63.382118 
	C272.763031,62.882145 270.891388,61.356163 269.672729,61.789242 
	C263.237122,64.076340 257.111542,63.341324 251.459000,60.060486 
	C248.165390,58.148830 245.551819,57.594067 242.372681,59.936550 
	C241.656326,60.464371 239.952805,60.200729 238.972305,59.735443 
	C230.764862,55.840721 222.959183,55.902927 217.167038,61.906105 
	C216.527557,61.497799 215.761703,61.156925 215.183868,60.615425 
	C211.785233,57.430546 208.476517,55.751488 204.881805,60.461399 
	C204.388062,61.108303 202.915009,61.049633 201.880234,61.231617 
	C200.456192,61.482063 199.003372,61.581337 197.589722,61.874710 
	C196.320435,62.138126 195.087402,62.576267 194.137222,62.850937 
	C193.828384,60.734562 193.710800,59.316296 193.397995,57.942486 
	C193.018509,56.275707 192.474213,54.646454 192.098053,52.955132 
	C192.194870,52.909290 192.210800,52.653873 192.210800,52.653873 
	C192.210800,52.653873 191.999023,52.998669 191.632706,53.001152 
	C189.881424,53.368206 188.461243,53.635086 187.119171,54.118668 
	C184.687469,54.994854 182.302307,56.000198 179.897720,56.951622 
z"/>
<path fill="#E96763" opacity="1.000000" stroke="none" 
	d="
M179.588806,56.978931 
	C182.302307,56.000198 184.687469,54.994854 187.119171,54.118668 
	C188.461243,53.635086 189.881424,53.368206 191.633194,53.001816 
	C192.000000,53.000000 192.001221,53.000969 192.001221,53.000969 
	C192.474213,54.646454 193.018509,56.275707 193.397995,57.942486 
	C193.710800,59.316296 193.828384,60.734562 194.137222,62.850937 
	C195.087402,62.576267 196.320435,62.138126 197.589722,61.874710 
	C199.003372,61.581337 200.456192,61.482063 201.880234,61.231617 
	C202.915009,61.049633 204.388062,61.108303 204.881805,60.461399 
	C208.476517,55.751488 211.785233,57.430546 215.183868,60.615425 
	C215.761703,61.156925 216.527557,61.497799 217.167038,61.906105 
	C222.959183,55.902927 230.764862,55.840721 238.972305,59.735443 
	C239.952805,60.200729 241.656326,60.464371 242.372681,59.936550 
	C245.551819,57.594067 248.165390,58.148830 251.459000,60.060486 
	C257.111542,63.341324 263.237122,64.076340 269.672729,61.789242 
	C270.891388,61.356163 272.763031,62.882145 274.371338,63.382118 
	C275.471252,63.724049 277.212402,64.445961 277.684174,63.987270 
	C282.310608,59.489143 288.142365,62.189072 293.260742,61.604637 
	C298.219971,61.038376 303.432587,62.906673 308.524536,64.406357 
	C312.991577,65.722008 318.437653,63.767902 323.430603,63.102516 
	C323.716370,63.064434 323.814911,61.621510 324.287048,60.437881 
	C324.760590,60.037331 324.947723,60.031303 325.134827,60.025280 
	C325.134827,60.025280 325.490631,60.051628 325.721008,60.492661 
	C327.656738,61.949333 329.362091,62.964970 331.067474,63.980606 
	C331.067474,63.980606 331.003784,63.991352 331.039307,64.303993 
	C331.732635,66.076515 332.390442,67.536392 332.574219,68.997772 
	C304.132507,68.999809 276.164185,68.875839 248.197449,69.036453 
	C221.097137,69.192093 193.998489,69.640259 166.962021,69.608658 
	C167.676376,67.480286 168.327820,65.703201 168.979279,63.926117 
	C168.979263,63.926117 168.997543,63.991810 169.207458,63.889893 
	C169.610992,63.498287 169.804581,63.208599 169.998169,62.918907 
	C169.998169,62.918907 169.990051,62.987507 170.324463,62.987305 
	C171.772064,61.975861 172.885254,60.964619 173.998444,59.953377 
	C173.998444,59.953377 174.005829,60.005730 174.351135,60.022232 
	C175.767975,59.354542 176.839508,58.670345 177.911026,57.986145 
	C178.367310,57.659508 178.823608,57.332874 179.588806,56.978931 
z"/>
<path fill="#0E0E0E" opacity="1.000000" stroke="none" 
	d="
M247.092560,328.977173 
	C249.015625,332.083069 252.592682,334.723480 249.957581,339.162933 
	C249.896515,339.265778 251.045303,340.086731 251.819977,341.113220 
	C252.043716,342.088959 252.077286,342.524170 252.076263,343.430908 
	C252.049896,350.289673 252.058075,356.676910 252.053940,363.523407 
	C251.988770,368.004944 251.935928,372.027252 251.883087,376.049530 
	C239.299316,376.216980 229.569702,371.316071 223.590012,359.942230 
	C222.773651,358.389435 222.488770,356.557251 222.189774,354.207703 
	C222.282486,351.708221 222.143219,349.855469 222.283966,347.849365 
	C223.241257,346.775818 223.918518,345.855621 224.595779,344.935425 
	C224.098236,344.719025 223.600708,344.502594 223.103165,344.286194 
	C222.734024,345.522919 222.364883,346.759613 221.738403,347.876160 
	C220.976807,347.492310 220.472565,347.228607 219.968323,346.964905 
	C219.968323,346.964905 219.971466,346.479950 220.032074,345.775452 
	C220.137543,340.716187 220.182419,336.361389 220.478638,331.943604 
	C220.559845,331.251556 220.389725,330.622467 220.150833,329.533844 
	C220.052689,324.723206 220.023315,320.372101 219.993942,316.021027 
	C220.046661,315.749878 220.099365,315.478699 220.612030,314.852295 
	C227.711472,318.108398 231.628891,324.072632 234.903656,330.927032 
	C235.643005,336.118927 236.252548,340.973572 237.261734,345.743652 
	C238.337311,350.827484 239.790817,355.831360 241.102020,361.233887 
	C242.256165,363.633545 243.387619,365.669495 244.519073,367.705475 
	C246.135971,365.653442 246.871140,363.957855 246.912643,362.245453 
	C247.063446,356.023163 247.040237,349.794525 246.961685,343.569794 
	C246.926529,340.784302 246.465668,338.002747 246.458664,335.218781 
	C246.453430,333.138794 246.866028,331.057739 247.092560,328.977173 
M226.269730,341.218018 
	C226.364502,342.246124 226.459259,343.274231 226.554031,344.302338 
	C227.067993,344.180817 227.581955,344.059265 228.095917,343.937714 
	C227.630798,342.876801 227.165680,341.815887 226.269730,341.218018 
M226.500961,334.294312 
	C226.143997,334.884979 225.787018,335.475647 225.430038,336.066345 
	C225.997635,336.219788 226.565231,336.373260 227.132843,336.526703 
	C227.124710,335.834747 227.116562,335.142792 226.500961,334.294312 
M223.956894,334.987457 
	C223.801559,334.717438 223.646225,334.447418 223.490875,334.177399 
	C223.374908,334.293701 223.163361,334.406189 223.158554,334.526947 
	C223.127975,335.295502 223.142990,336.065918 223.142990,336.835693 
	C223.306839,336.843689 223.470688,336.851654 223.634537,336.859650 
	C223.749435,336.407013 223.864334,335.954407 223.956894,334.987457 
M223.159607,341.487762 
	C223.098602,341.167786 223.037598,340.847839 222.976593,340.527863 
	C222.904266,340.845062 222.831940,341.162292 223.159607,341.487762 
M227.458786,329.493073 
	C227.458786,329.493073 227.515427,329.467621 227.458786,329.493073 
M224.493820,328.539246 
	C224.493820,328.539246 224.468521,328.482819 224.493820,328.539246 
M225.491470,350.545990 
	C225.491470,350.545990 225.461563,350.483002 225.491470,350.545990 
z"/>
<path fill="#282728" opacity="1.000000" stroke="none" 
	d="
M171.036896,317.949860 
	C179.260757,311.114380 189.164398,312.573181 198.492920,313.288635 
	C203.034500,313.636932 207.330688,317.184937 211.574463,319.692383 
	C209.800644,321.498016 208.143051,322.845520 206.590881,324.305084 
	C204.131851,326.617462 204.520584,333.484192 207.144348,335.040955 
	C201.699554,340.068909 201.699554,340.068909 198.294891,335.011597 
	C198.628906,331.436127 198.943130,328.498840 199.400208,324.226288 
	C193.221710,327.034760 187.174835,325.682098 185.030136,331.967163 
	C185.030136,331.967163 184.634674,332.038727 184.069427,332.060059 
	C181.882248,332.216034 180.260345,332.350677 178.001099,332.538177 
	C178.001099,334.773743 178.001099,336.888397 177.925903,339.296875 
	C177.266556,340.397247 176.682404,341.203796 175.723755,341.994690 
	C170.203003,339.266479 165.056747,336.553955 159.910507,333.841400 
	C159.912048,333.448853 159.913589,333.056335 160.173065,332.156067 
	C160.594131,331.012268 160.757278,330.376190 160.920441,329.740082 
	C161.212204,329.316010 161.503952,328.891907 162.289856,328.232056 
	C167.132401,327.937073 166.934967,324.809082 166.950302,321.824707 
	C166.950302,321.824707 166.964615,321.408020 167.294464,321.160156 
	C168.072449,320.527893 168.520584,320.143463 168.968719,319.759033 
	C169.040237,319.508911 169.176346,319.301117 169.812378,318.946625 
	C170.510757,318.488373 170.773834,318.219116 171.036896,317.949860 
z"/>
<path fill="#2F2F2F" opacity="1.000000" stroke="none" 
	d="
M159.613861,334.107544 
	C165.056747,336.553955 170.203003,339.266479 175.706543,342.378601 
	C171.454010,353.241241 172.784561,363.240387 178.300903,373.203491 
	C178.074646,373.686920 177.964111,373.870453 177.853561,374.054016 
	C169.835144,371.641937 164.583557,366.393250 160.840851,358.916443 
	C157.681793,352.605591 158.028473,346.098785 158.037674,339.525482 
	C158.040085,337.807617 158.868271,336.090912 159.613861,334.107544 
z"/>
<path fill="#090809" opacity="1.000000" stroke="none" 
	d="
M325.979706,373.939423 
	C325.187958,374.616150 324.415100,375.851410 323.601379,375.878937 
	C318.328674,376.057343 313.040314,376.108887 307.774475,375.849487 
	C306.821075,375.802521 305.446808,374.261963 305.153473,373.172272 
	C304.696686,371.475525 304.999329,369.574341 304.992645,367.007629 
	C305.039154,365.870544 305.073120,365.485687 305.063599,365.047638 
	C305.020142,364.994476 305.093170,365.109375 305.438141,365.094604 
	C307.177795,364.028595 308.572449,362.977386 310.285706,361.818176 
	C312.525452,359.834015 314.446625,357.957886 316.505707,355.981628 
	C316.816345,355.728302 316.950958,355.546814 317.275116,355.099609 
	C317.672363,354.256195 317.841919,353.650208 318.027771,353.036438 
	C318.044098,353.028687 318.047119,352.992645 318.366760,352.870758 
	C319.188721,351.499451 319.691071,350.250031 320.448303,348.829163 
	C321.133942,347.773224 321.564667,346.888733 322.067322,345.683533 
	C323.043152,344.919647 323.947052,344.476471 324.886627,344.498047 
	C324.942505,350.747437 324.846649,356.535614 325.023529,362.315430 
	C325.142303,366.196198 325.647430,370.065186 325.979706,373.939423 
z"/>
<path fill="#CE8783" opacity="1.000000" stroke="none" 
	d="
M333.048279,68.996262 
	C332.390442,67.536392 331.732635,66.076515 331.045410,64.272278 
	C337.185211,69.283333 343.929718,74.119751 349.361481,80.140495 
	C354.767426,86.132690 359.680359,92.894699 363.328674,100.071877 
	C368.888916,111.010132 373.655792,122.420189 377.877777,133.952713 
	C383.077667,148.156281 383.330048,163.166321 382.941467,178.106766 
	C382.819580,182.792435 381.859528,187.456299 381.084167,192.491089 
	C379.310394,192.166245 377.735535,191.480484 376.426514,190.435028 
	C379.728333,190.149246 380.049744,188.203766 380.027496,185.802597 
	C379.966309,179.205399 380.006195,172.607269 380.012146,165.546082 
	C379.019043,157.055206 378.019897,149.027740 376.959717,140.619797 
	C375.594269,135.487961 374.289795,130.736603 372.813080,125.665169 
	C372.092255,123.996582 371.610016,122.616356 370.983185,121.305244 
	C368.696991,116.523270 366.362610,111.764343 363.898315,106.663612 
	C360.180511,100.863434 356.610687,95.396385 352.984497,89.588531 
	C351.226501,87.055992 349.743835,84.640839 347.779968,82.716835 
	C342.988037,78.022217 337.973297,73.555023 333.048279,68.996262 
z"/>
<path fill="#D08B88" opacity="1.000000" stroke="none" 
	d="
M168.625458,63.997246 
	C168.327820,65.703201 167.676376,67.480286 166.604141,69.620636 
	C158.623245,72.445671 155.616791,79.530708 150.691467,85.136414 
	C149.139038,86.842216 147.650146,88.238152 146.649994,89.924026 
	C143.311142,95.552048 140.147339,101.283928 136.598328,107.055481 
	C135.518661,108.421974 134.757126,109.708992 133.735107,111.221710 
	C132.308243,114.628456 131.141846,117.809517 129.818542,121.275055 
	C129.107635,122.708839 128.553665,123.858139 127.751091,125.293549 
	C126.319214,130.715164 125.135933,135.850677 123.702553,141.269012 
	C122.320946,149.700943 121.189423,157.850067 120.044510,166.463440 
	C120.357109,173.023468 120.901237,179.118530 120.921494,185.215332 
	C120.932419,188.501785 122.163078,189.687836 125.223648,189.456284 
	C123.683891,190.684906 122.144142,191.913528 120.254570,193.176941 
	C119.273857,182.229050 117.504425,171.160385 118.325256,160.287277 
	C119.183762,148.915100 122.091812,137.619141 124.913109,126.495071 
	C127.915375,114.657486 133.610336,103.833328 140.688614,93.943176 
	C146.188080,86.259018 152.410110,79.060707 158.683350,71.976173 
	C161.396286,68.912392 165.046951,66.678970 168.625458,63.997246 
z"/>
<path fill="#131313" opacity="1.000000" stroke="none" 
	d="
M324.850952,344.033295 
	C323.947052,344.476471 323.043152,344.919647 321.703217,345.615479 
	C320.189667,343.718262 318.212219,341.576233 318.193420,339.417114 
	C318.119873,330.958954 318.664612,322.495483 318.979614,314.033966 
	C320.182770,313.860474 321.385895,313.687012 322.631104,313.982727 
	C323.114990,316.631409 323.556763,318.810883 324.109711,321.354553 
	C329.391937,325.109680 333.055511,321.407959 337.250763,319.006897 
	C337.677338,319.011841 337.847992,319.013489 338.061707,319.110718 
	C338.104828,319.206299 338.355408,319.222626 338.355408,319.222626 
	C338.355408,319.222626 338.015167,319.018341 338.009674,318.760254 
	C337.997772,318.330139 337.991364,318.158142 337.990784,317.991547 
	C337.996552,317.996948 337.972687,317.985077 338.348450,318.012695 
	C339.265869,319.489227 340.383331,321.033295 340.164703,322.356628 
	C339.993683,323.391968 338.166199,324.153687 337.004456,325.384857 
	C334.938049,327.562012 332.941925,329.391266 331.184479,331.001770 
	C334.605774,331.001770 338.800354,331.001770 342.994934,331.001770 
	C337.635254,331.339142 332.275574,331.676544 326.182617,332.322449 
	C325.249847,336.431732 325.050415,340.232513 324.850952,344.033295 
z"/>
<path fill="#686868" opacity="1.000000" stroke="none" 
	d="
M283.882904,353.988525 
	C282.385498,357.379181 281.445374,361.187225 279.280365,364.077881 
	C273.967041,371.172028 266.869171,375.609314 257.311005,375.517944 
	C257.270630,373.634247 257.618469,372.239380 257.982971,370.883820 
	C257.999603,370.923157 257.919891,370.954010 258.250122,371.018372 
	C258.702545,370.694397 258.824707,370.306091 258.961334,369.960632 
	C258.975800,370.003479 258.922821,369.929688 259.274872,370.069214 
	C262.848572,367.806244 266.070221,365.403748 269.526733,362.866028 
	C271.597778,361.044769 273.434021,359.358643 275.370605,357.580414 
	C274.501801,356.639587 273.748993,355.824310 272.988770,354.653198 
	C271.965363,352.507019 270.949280,350.716644 269.984039,348.639099 
	C270.361237,347.894257 270.687622,347.436615 271.058472,347.070374 
	C271.102936,347.161804 271.323730,347.181274 271.323730,347.181274 
	C271.323730,347.181274 270.978455,347.015198 271.108612,346.763611 
	C271.500183,346.009521 271.761597,345.506989 272.338348,345.151428 
	C275.194855,347.883179 277.736023,350.467926 280.277222,353.052704 
	C280.021301,353.364624 279.765411,353.676575 279.509491,353.988525 
	C280.967285,353.988525 282.425110,353.988525 283.882904,353.988525 
z"/>
<path fill="#444444" opacity="1.000000" stroke="none" 
	d="
M241.079330,360.870148 
	C239.790817,355.831360 238.337311,350.827484 237.261734,345.743652 
	C236.252548,340.973572 235.643005,336.118927 235.133118,330.537231 
	C235.644241,325.818390 235.879837,321.863861 236.115433,317.909332 
	C238.708237,320.036865 241.301025,322.164429 243.644043,324.957062 
	C243.239731,335.690033 243.166901,345.760437 242.851013,355.823242 
	C242.797684,357.522400 241.696442,359.188690 241.079330,360.870148 
z"/>
<path fill="#BDBDBD" opacity="1.000000" stroke="none" 
	d="
M178.416611,372.903595 
	C172.784561,363.240387 171.454010,353.241241 176.081039,342.394257 
	C176.682404,341.203796 177.266556,340.397247 178.251099,339.265320 
	C179.080826,338.992004 179.510132,339.044006 179.939453,339.096008 
	C179.949966,342.064606 179.960495,345.033234 180.086700,348.666534 
	C180.384125,349.588531 180.596771,349.817047 180.840317,350.016785 
	C180.840317,350.016785 180.945267,350.453461 180.992432,351.084076 
	C181.349304,357.410645 181.686966,363.105316 181.955505,368.803192 
	C182.069534,371.222321 181.426788,373.118317 178.416611,372.903595 
z"/>
<path fill="#1E1D1E" opacity="1.000000" stroke="none" 
	d="
M318.560028,314.024261 
	C318.664612,322.495483 318.119873,330.958954 318.193420,339.417114 
	C318.212219,341.576233 320.189667,343.718262 321.631287,345.936218 
	C321.564667,346.888733 321.133942,347.773224 320.117126,348.967438 
	C319.036407,350.515686 318.541779,351.754150 318.047119,352.992645 
	C318.047119,352.992645 318.044098,353.028687 317.759705,353.228333 
	C317.332672,354.064301 317.190033,354.700684 317.047363,355.337036 
	C316.950958,355.546814 316.816345,355.728302 316.168915,355.810913 
	C314.938660,354.904541 313.545990,354.079834 313.531281,353.231201 
	C313.437897,347.841919 313.678345,342.447784 313.749542,337.054443 
	C313.799255,333.290558 313.728912,329.525269 313.758911,325.760986 
	C313.789886,321.871918 313.877472,317.983307 313.940277,314.094482 
	C315.340332,314.067841 316.740417,314.041199 318.560028,314.024261 
z"/>
<path fill="#1E1D1E" opacity="1.000000" stroke="none" 
	d="
M204.250366,350.953369 
	C209.102722,353.673645 213.955078,356.393890 219.059280,359.255310 
	C216.100494,365.124329 212.748291,369.809509 206.093445,371.762360 
	C204.841476,370.341492 203.782761,369.129150 203.662308,367.829803 
	C203.172440,362.546387 202.943085,357.237396 202.732193,351.933319 
	C202.720032,351.627258 203.720932,351.280945 204.250366,350.953369 
z"/>
<path fill="#333333" opacity="1.000000" stroke="none" 
	d="
M252.110840,342.959412 
	C252.077286,342.524170 252.043716,342.088959 252.005066,341.326355 
	C254.397659,336.062469 256.795349,331.125946 259.711884,326.276123 
	C260.862244,329.141235 261.493774,331.919647 262.148376,334.799622 
	C262.373413,334.657074 263.212372,334.125580 263.851593,333.720642 
	C265.234650,334.879456 266.518311,335.954987 267.849030,337.445679 
	C267.581940,341.015656 269.213501,344.966553 264.251160,346.247986 
	C265.552948,347.222015 266.707520,348.085876 267.896484,348.974670 
	C267.930847,348.999664 267.988281,348.936981 267.738251,348.984497 
	C267.356750,349.328552 267.225281,349.625122 266.938843,350.173828 
	C266.835999,351.284210 266.888062,352.142487 266.840698,353.281219 
	C266.412506,354.049255 266.083801,354.536774 265.455597,354.924072 
	C264.349762,352.924530 263.656158,350.967163 262.714447,349.137482 
	C260.512238,344.858734 255.961273,344.483521 252.110840,342.959412 
M262.710388,341.935883 
	C262.584991,341.177734 262.459625,340.419586 262.334259,339.661438 
	C261.924988,339.797455 261.515686,339.933472 261.106415,340.069489 
	C261.500671,340.828674 261.894928,341.587891 262.710388,341.935883 
M262.554901,344.509460 
	C262.554901,344.509460 262.488831,344.540955 262.554901,344.509460 
z"/>
<path fill="#B5B7BF" opacity="1.000000" stroke="none" 
	d="
M151.229431,256.404266 
	C217.037491,255.998810 283.017975,255.994202 349.462067,255.997589 
	C348.766083,256.336334 347.606750,256.955658 346.446930,256.956482 
	C281.924957,257.001526 217.402969,256.995270 152.880981,256.985626 
	C152.387939,256.985565 151.894913,256.867859 151.229431,256.404266 
z"/>
<path fill="#818182" opacity="1.000000" stroke="none" 
	d="
M274.045898,315.084167 
	C277.468567,314.740509 280.891205,314.396851 284.692322,314.475464 
	C284.979950,315.627930 284.889130,316.358154 284.698975,317.174255 
	C284.466736,317.524292 284.533051,317.741425 284.851624,318.381378 
	C284.912903,323.915649 284.921082,328.980103 284.692841,334.222626 
	C283.323303,333.984406 282.041779,333.780365 281.085175,333.111603 
	C278.357330,331.204529 275.761719,329.108398 272.977478,326.871582 
	C272.576080,326.448975 272.311279,326.241425 272.182678,325.712280 
	C273.333191,322.028687 278.244598,319.319733 274.045898,315.084167 
z"/>
<path fill="#4E4E4E" opacity="1.000000" stroke="none" 
	d="
M300.912140,314.190582 
	C302.776123,313.977173 304.640137,313.763763 306.754059,314.219299 
	C306.367035,331.628632 305.730103,348.369019 305.093170,365.109375 
	C305.093170,365.109375 305.020142,364.994476 304.836670,365.003296 
	C304.653198,365.012085 304.196045,364.956329 304.196045,364.956329 
	C304.113159,355.526245 304.126465,346.093384 303.851654,336.668884 
	C303.806427,335.118134 302.496338,333.604279 301.383026,331.527252 
	C300.967529,325.384277 300.939850,319.787445 300.912140,314.190582 
z"/>
<path fill="#2F2F2F" opacity="1.000000" stroke="none" 
	d="
M313.541931,314.070801 
	C313.877472,317.983307 313.789886,321.871918 313.758911,325.760986 
	C313.728912,329.525269 313.799255,333.290558 313.749542,337.054443 
	C313.678345,342.447784 313.437897,347.841919 313.531281,353.231201 
	C313.545990,354.079834 314.938660,354.904541 316.031036,355.911041 
	C314.446625,357.957886 312.525452,359.834015 310.292786,361.357239 
	C309.970490,345.386078 309.959656,329.767883 309.948822,314.149658 
	C311.013763,314.115479 312.078674,314.081299 313.541931,314.070801 
z"/>
<path fill="#3F3F3F" opacity="1.000000" stroke="none" 
	d="
M309.585510,314.107544 
	C309.959656,329.767883 309.970490,345.386078 309.974243,361.465240 
	C308.572449,362.977386 307.177795,364.028595 305.438141,365.094604 
	C305.730103,348.369019 306.367035,331.628632 307.017212,314.414703 
	C307.761017,313.982574 308.491577,314.023987 309.585510,314.107544 
z"/>
<path fill="#1E1D1E" opacity="1.000000" stroke="none" 
	d="
M241.102020,361.233887 
	C241.696442,359.188690 242.797684,357.522400 242.851013,355.823242 
	C243.166901,345.760437 243.239731,335.690033 243.640976,325.314209 
	C244.916382,326.109894 245.945099,327.213562 247.033188,328.647186 
	C246.866028,331.057739 246.453430,333.138794 246.458664,335.218781 
	C246.465668,338.002747 246.926529,340.784302 246.961685,343.569794 
	C247.040237,349.794525 247.063446,356.023163 246.912643,362.245453 
	C246.871140,363.957855 246.135971,365.653442 244.519073,367.705475 
	C243.387619,365.669495 242.256165,363.633545 241.102020,361.233887 
z"/>
<path fill="#707070" opacity="1.000000" stroke="none" 
	d="
M284.053162,353.640747 
	C282.425110,353.988525 280.967285,353.988525 279.509491,353.988525 
	C279.765411,353.676575 280.021301,353.364624 280.277222,353.052704 
	C277.736023,350.467926 275.194855,347.883179 272.120209,345.021454 
	C270.737152,344.357330 269.136932,343.927612 269.156067,343.589661 
	C269.317993,340.732361 269.775574,337.891815 270.490234,335.092407 
	C274.438721,336.080719 275.119354,338.795715 274.794922,342.015442 
	C274.389618,342.178528 274.186920,342.323730 273.984222,342.468903 
	C274.102997,342.514435 274.273651,342.633484 274.331543,342.592682 
	C274.573334,342.422058 274.781281,342.203430 275.311646,341.937500 
	C276.925629,341.936249 278.348694,341.689667 279.506439,342.134186 
	C281.384979,342.855408 283.089600,344.029602 284.980103,345.226959 
	C285.267365,345.752533 285.533142,345.912781 285.889954,345.922119 
	C285.334442,348.379059 284.778900,350.835999 284.053162,353.640747 
z"/>
<path fill="#818182" opacity="1.000000" stroke="none" 
	d="
M304.007935,269.927338 
	C268.953674,269.965240 233.899414,269.998383 198.845154,270.044006 
	C188.211914,270.057861 177.578690,270.106354 166.484589,270.055420 
	C167.352158,269.637787 168.680374,269.012726 170.009064,269.011658 
	C214.366714,268.976288 258.724396,269.000488 303.545807,269.278961 
	C304.009521,269.541962 304.007935,269.927338 304.007935,269.927338 
z"/>
<path fill="#1E1D1E" opacity="1.000000" stroke="none" 
	d="
M207.504395,335.048126 
	C204.520584,333.484192 204.131851,326.617462 206.590881,324.305084 
	C208.143051,322.845520 209.800644,321.498016 211.747711,319.991455 
	C212.084473,319.882690 212.070923,319.931946 212.164734,320.177856 
	C212.520142,320.629272 212.781754,320.834778 213.043365,321.040283 
	C214.757446,322.663147 216.471527,324.285980 218.589096,326.342102 
	C218.941208,327.858978 218.889816,328.942627 218.838425,330.026245 
	C215.180435,331.702606 211.522430,333.378937 207.504395,335.048126 
z"/>
<path fill="#767676" opacity="1.000000" stroke="none" 
	d="
M300.477722,314.145935 
	C300.939850,319.787445 300.967529,325.384277 300.972656,331.441528 
	C298.902161,331.942719 296.854309,331.983521 294.390808,331.477081 
	C293.960602,325.355255 293.946014,319.780670 293.931396,314.206085 
	C295.968719,314.171143 298.006042,314.136230 300.477722,314.145935 
z"/>
<path fill="#A0A0A0" opacity="1.000000" stroke="none" 
	d="
M293.504913,314.152527 
	C293.946014,319.780670 293.960602,325.355255 293.960022,331.387085 
	C289.599030,334.054260 287.710449,331.655945 287.099335,327.844940 
	C286.685181,325.262238 287.245087,322.532074 286.916168,319.925018 
	C286.290894,314.969299 288.379517,313.243652 293.504913,314.152527 
z"/>
<path fill="#8A8A8A" opacity="1.000000" stroke="none" 
	d="
M235.898407,317.613831 
	C235.879837,321.863861 235.644241,325.818390 235.179169,330.162720 
	C231.628891,324.072632 227.711472,318.108398 220.719452,314.452087 
	C221.248047,313.916931 222.305435,312.832550 222.981522,313.033142 
	C227.261810,314.303253 231.457672,315.857727 235.898407,317.613831 
z"/>
<path fill="#2F2F2F" opacity="1.000000" stroke="none" 
	d="
M204.057983,350.660095 
	C203.720932,351.280945 202.720032,351.627258 202.732193,351.933319 
	C202.943085,357.237396 203.172440,362.546387 203.662308,367.829803 
	C203.782761,369.129150 204.841476,370.341492 205.738525,371.798157 
	C204.286362,372.970551 202.564514,373.938629 200.451889,374.978577 
	C200.061096,375.050446 199.947495,375.053192 199.948120,374.641846 
	C199.915985,371.367889 200.091599,368.483704 199.797836,365.648163 
	C199.429367,362.091614 198.675980,358.574982 198.054840,354.673523 
	C197.992218,354.061523 197.963470,353.817108 197.934708,353.572662 
	C198.937897,352.343628 199.783676,350.904236 201.016281,349.981750 
	C201.563461,349.572205 202.891815,350.206360 204.057983,350.660095 
z"/>
<path fill="#767676" opacity="1.000000" stroke="none" 
	d="
M188.066147,356.988434 
	C188.786774,357.004822 189.507385,357.021210 190.609955,357.532898 
	C191.361389,363.663177 191.730865,369.298096 192.073380,374.973511 
	C192.046432,375.014038 192.115738,374.940765 192.069946,375.171967 
	C192.024170,375.403168 191.937866,375.866638 191.937866,375.866638 
	C189.239929,375.918884 186.542007,375.971130 183.530716,375.602814 
	C184.147705,373.248627 185.549362,371.394714 185.893097,369.361908 
	C186.357681,366.614410 185.793625,363.705627 186.102600,360.913788 
	C186.253571,359.549622 187.380798,358.293488 188.066147,356.988434 
z"/>
<path fill="#A0A0A0" opacity="1.000000" stroke="none" 
	d="
M187.909241,356.655396 
	C187.380798,358.293488 186.253571,359.549622 186.102600,360.913788 
	C185.793625,363.705627 186.357681,366.614410 185.893097,369.361908 
	C185.549362,371.394714 184.147705,373.248627 183.084808,375.521606 
	C181.373779,375.465332 179.795319,375.069672 178.035217,374.364014 
	C177.964111,373.870453 178.074646,373.686920 178.300903,373.203491 
	C181.426788,373.118317 182.069534,371.222321 181.955505,368.803192 
	C181.686966,363.105316 181.349304,357.410645 181.048691,351.301453 
	C183.289307,352.699585 185.520828,354.510956 187.909241,356.655396 
z"/>
<path fill="#3F3F3F" opacity="1.000000" stroke="none" 
	d="
M267.801971,337.030518 
	C266.518311,335.954987 265.234650,334.879456 263.851593,333.720642 
	C263.212372,334.125580 262.373413,334.657074 262.148376,334.799622 
	C261.493774,331.919647 260.862244,329.141235 259.985626,326.052429 
	C261.940063,323.571716 264.139618,321.401428 266.867737,319.363281 
	C267.653015,322.701721 267.909729,325.907990 268.216675,329.466278 
	C268.111969,332.222382 267.956970,334.626465 267.801971,337.030518 
z"/>
<path fill="#3F3F3F" opacity="1.000000" stroke="none" 
	d="
M210.577545,286.928101 
	C211.376480,286.594543 212.630829,286.050598 213.886292,286.048035 
	C238.774582,285.997040 263.663025,286.002777 288.551392,286.029968 
	C289.516357,286.031036 290.481018,286.360016 291.724609,286.858459 
	C265.013428,287.110382 238.023453,287.040100 210.577545,286.928101 
z"/>
<path fill="#4E4E4E" opacity="1.000000" stroke="none" 
	d="
M185.387131,331.852112 
	C187.174835,325.682098 193.221710,327.034760 199.400208,324.226288 
	C198.943130,328.498840 198.628906,331.436127 198.155396,334.698853 
	C193.912094,333.928558 189.828110,332.832794 185.387131,331.852112 
z"/>
<path fill="#686868" opacity="1.000000" stroke="none" 
	d="
M268.166412,329.114227 
	C267.909729,325.907990 267.653015,322.701721 267.165466,319.219910 
	C269.078827,317.701904 271.223114,316.459473 273.706635,315.150635 
	C278.244598,319.319733 273.333191,322.028687 272.088348,326.042511 
	C270.627350,327.500977 269.396881,328.307587 268.166412,329.114227 
z"/>
<path fill="#444444" opacity="1.000000" stroke="none" 
	d="
M192.985992,356.818359 
	C193.980499,356.093292 194.975006,355.368195 196.401306,354.731812 
	C196.833099,354.820496 197.084503,355.084839 197.060730,355.542053 
	C197.367569,362.324677 197.698181,368.650085 197.603577,374.981842 
	C195.490814,374.972382 193.803268,374.956573 192.115738,374.940765 
	C192.115738,374.940765 192.046432,375.014038 192.295685,374.700928 
	C196.662384,368.631012 194.726395,362.722229 192.985992,356.818359 
z"/>
<path fill="#4E4E4E" opacity="1.000000" stroke="none" 
	d="
M192.646088,356.870911 
	C194.726395,362.722229 196.662384,368.631012 192.322632,374.660400 
	C191.730865,369.298096 191.361389,363.663177 190.968597,357.568604 
	C191.398911,357.047119 191.852539,356.985291 192.646088,356.870911 
z"/>
<path fill="#090809" opacity="1.000000" stroke="none" 
	d="
M343.244690,330.711365 
	C338.800354,331.001770 334.605774,331.001770 331.184479,331.001770 
	C332.941925,329.391266 334.938049,327.562012 337.433167,325.372498 
	C339.951019,325.005707 341.969849,324.999237 343.988708,324.992767 
	C343.823944,326.802155 343.659210,328.611572 343.244690,330.711365 
z"/>
<path fill="#0E0E0E" opacity="1.000000" stroke="none" 
	d="
M323.998566,320.990356 
	C323.556763,318.810883 323.114990,316.631409 322.856873,314.207336 
	C326.482574,314.137817 329.924591,314.312927 333.683289,315.072510 
	C333.995850,316.095184 333.991730,316.533356 333.597656,316.980194 
	C331.135468,317.992065 329.063263,318.995300 326.792236,320.123627 
	C326.344421,320.446350 326.145844,320.685822 325.664490,320.968903 
	C324.887054,320.977234 324.442810,320.983795 323.998566,320.990356 
z"/>
<path fill="#0E0E0E" opacity="1.000000" stroke="none" 
	d="
M343.989624,324.589600 
	C341.969849,324.999237 339.951019,325.005707 337.503418,325.024597 
	C338.166199,324.153687 339.993683,323.391968 340.164703,322.356628 
	C340.383331,321.033295 339.265869,319.489227 338.166809,317.793823 
	C337.078247,317.371643 336.547150,317.195953 336.008820,316.682190 
	C336.000336,315.893066 335.999084,315.441986 335.997803,314.990936 
	C342.181213,312.780945 343.162415,313.416992 343.241669,319.412262 
	C343.262726,321.006683 343.728821,322.595215 343.989624,324.589600 
z"/>
<path fill="#3F3F3F" opacity="1.000000" stroke="none" 
	d="
M324.886658,344.498047 
	C325.050415,340.232513 325.249847,336.431732 325.713989,332.319672 
	C325.977997,345.677094 325.977295,359.345764 325.978149,373.476929 
	C325.647430,370.065186 325.142303,366.196198 325.023529,362.315430 
	C324.846649,356.535614 324.942505,350.747437 324.886658,344.498047 
z"/>
<path fill="#BDBDBD" opacity="1.000000" stroke="none" 
	d="
M285.941193,345.460938 
	C285.533142,345.912781 285.267365,345.752533 285.033569,344.770905 
	C284.959442,340.748505 284.944336,337.396545 284.929199,334.044586 
	C284.921082,328.980103 284.912903,323.915649 284.874084,318.175720 
	C284.843384,317.500244 284.798309,317.088348 284.798340,317.088348 
	C284.889130,316.358154 284.979950,315.627930 285.071503,314.528961 
	C285.393860,315.640778 285.981110,317.119110 285.993500,318.602295 
	C286.067017,327.400818 286.007355,336.200470 285.941193,345.460938 
z"/>
<path fill="#8A8A8A" opacity="1.000000" stroke="none" 
	d="
M304.472900,269.987244 
	C304.007935,269.927338 304.009521,269.541962 304.010498,269.349304 
	C314.212280,269.174316 324.413055,269.192047 334.801575,269.605408 
	C324.972107,270.016449 314.954987,270.031799 304.472900,269.987244 
z"/>
<path fill="#E1E8E7" opacity="1.000000" stroke="none" 
	d="
M218.889740,330.488678 
	C218.889816,328.942627 218.941208,327.858978 218.915497,326.374512 
	C218.948959,322.744995 219.059509,319.516357 219.582001,316.154358 
	C220.023315,320.372101 220.052689,324.723206 220.081726,329.867249 
	C220.130020,331.109009 220.178650,331.557831 220.227295,332.006622 
	C220.182419,336.361389 220.137543,340.716187 220.045715,345.533325 
	C219.646194,340.980865 219.293625,335.965973 218.889740,330.488678 
z"/>
<path fill="#3F3F3F" opacity="1.000000" stroke="none" 
	d="
M252.199814,376.072510 
	C251.935928,372.027252 251.988770,368.004944 252.413208,363.633270 
	C253.535355,366.529297 254.285919,369.774689 254.896530,373.333801 
	C254.431946,374.461761 254.107330,375.276093 253.782715,376.090393 
	C253.360657,376.092102 252.938599,376.093781 252.199814,376.072510 
z"/>
<path fill="#2F2F2F" opacity="1.000000" stroke="none" 
	d="
M180.006805,338.737701 
	C179.510132,339.044006 179.080826,338.992004 178.326294,338.971527 
	C178.001099,336.888397 178.001099,334.773743 178.001099,332.538177 
	C180.260345,332.350677 181.882248,332.216034 183.868958,332.073792 
	C182.847214,334.170593 181.460678,336.274994 180.006805,338.737701 
z"/>
<path fill="#2F2F2F" opacity="1.000000" stroke="none" 
	d="
M166.665497,322.008972 
	C166.934967,324.809082 167.132401,327.937073 162.395233,327.997253 
	C163.464539,326.063171 164.922623,324.128204 166.665497,322.008972 
z"/>
<path fill="#131313" opacity="1.000000" stroke="none" 
	d="
M222.003952,348.002716 
	C222.143219,349.855469 222.282486,351.708221 222.174133,353.822815 
	C221.271439,351.972748 220.616333,349.860809 219.964783,347.356903 
	C220.472565,347.228607 220.976807,347.492310 221.740524,347.877991 
	C222.000000,348.000000 222.003952,348.002716 222.003952,348.002716 
z"/>
<path fill="#BDBDBD" opacity="1.000000" stroke="none" 
	d="
M253.972504,376.343933 
	C254.107330,375.276093 254.431946,374.461761 255.168274,373.187134 
	C256.375427,372.099365 257.170868,371.471924 257.966309,370.844482 
	C257.618469,372.239380 257.270630,373.634247 256.891052,375.406433 
	C255.960327,376.054932 255.061310,376.326172 253.972504,376.343933 
z"/>
<path fill="#CE8783" opacity="1.000000" stroke="none" 
	d="
M330.945923,63.660538 
	C329.362091,62.964970 327.656738,61.949333 325.882996,60.567356 
	C327.484589,61.247501 329.154480,62.293983 330.945923,63.660538 
z"/>
<path fill="#CE8783" opacity="1.000000" stroke="none" 
	d="
M325.074799,59.662350 
	C324.947723,60.031303 324.760590,60.037331 324.293488,60.063839 
	C322.725861,59.005127 321.438232,57.925926 320.097473,56.523743 
	C321.701141,57.233646 323.357971,58.266533 325.074799,59.662350 
z"/>
<path fill="#D08B88" opacity="1.000000" stroke="none" 
	d="
M173.661652,59.982731 
	C172.885254,60.964619 171.772064,61.975861 170.291168,62.978104 
	C171.057266,61.983429 172.191071,60.997761 173.661652,59.982731 
z"/>
<path fill="#4E4E4E" opacity="1.000000" stroke="none" 
	d="
M192.069946,375.171967 
	C193.803268,374.956573 195.490814,374.972382 197.923828,374.981995 
	C199.095367,375.001617 199.521423,375.027405 199.947495,375.053192 
	C199.947495,375.053192 200.061096,375.050446 200.107971,375.017273 
	C197.704041,375.327759 195.253220,375.671387 192.370148,375.940826 
	C191.937866,375.866638 192.024170,375.403168 192.069946,375.171967 
z"/>
<path fill="#D08B88" opacity="1.000000" stroke="none" 
	d="
M177.560883,57.993240 
	C176.839508,58.670345 175.767975,59.354542 174.325531,60.015671 
	C175.039978,59.328510 176.125351,58.664425 177.560883,57.993240 
z"/>
<path fill="#131313" opacity="1.000000" stroke="none" 
	d="
M335.664764,314.993042 
	C335.999084,315.441986 336.000336,315.893066 336.002502,316.673035 
	C336.003418,317.001984 336.013550,317.013824 335.750366,317.009735 
	C335.311646,317.007080 335.136169,317.008545 334.717285,317.003296 
	C334.473877,316.996643 333.987579,316.971558 333.987610,316.971558 
	C333.991730,316.533356 333.995850,316.095184 334.000122,315.327942 
	C334.444092,314.997650 334.887909,314.996399 335.664764,314.993042 
z"/>
<path fill="#2F2F2F" opacity="1.000000" stroke="none" 
	d="
M160.652069,329.946869 
	C160.757278,330.376190 160.594131,331.012268 160.170532,331.861603 
	C160.067932,331.434448 160.225815,330.794037 160.652069,329.946869 
z"/>
<path fill="#2F2F2F" opacity="1.000000" stroke="none" 
	d="
M168.680298,319.851379 
	C168.520584,320.143463 168.072449,320.527893 167.320160,320.953278 
	C167.474640,320.644073 167.933258,320.293915 168.680298,319.851379 
z"/>
<path fill="#3F3F3F" opacity="1.000000" stroke="none" 
	d="
M304.159485,365.235840 
	C304.196045,364.956329 304.653198,365.012085 304.880127,365.056458 
	C305.073120,365.485687 305.039154,365.870544 304.981262,366.543579 
	C304.679199,366.392914 304.401093,365.954132 304.159485,365.235840 
z"/>
<path fill="#2F2F2F" opacity="1.000000" stroke="none" 
	d="
M170.759720,318.027344 
	C170.773834,318.219116 170.510757,318.488373 169.973373,318.848450 
	C169.960205,318.661102 170.221375,318.382935 170.759720,318.027344 
z"/>
<path fill="#444444" opacity="1.000000" stroke="none" 
	d="
M197.707184,353.730591 
	C197.963470,353.817108 197.992218,354.061523 197.803284,354.681763 
	C197.418549,355.066681 197.251526,355.075775 197.084503,355.084839 
	C197.084503,355.084839 196.833099,354.820496 196.716324,354.676758 
	C196.892914,354.318207 197.186295,354.103363 197.707184,353.730591 
z"/>
<path fill="#D08B88" opacity="1.000000" stroke="none" 
	d="
M169.719879,62.979275 
	C169.804581,63.208599 169.610992,63.498287 169.173782,63.895145 
	C169.100647,63.681423 169.271118,63.360531 169.719879,62.979275 
z"/>
<path fill="#A0A0A0" opacity="1.000000" stroke="none" 
	d="
M180.897949,349.742340 
	C180.596771,349.817047 180.384125,349.588531 180.126587,349.109283 
	C180.352386,349.080872 180.653976,349.274384 180.897949,349.742340 
z"/>
<path fill="#282728" opacity="1.000000" stroke="none" 
	d="
M212.966309,320.788513 
	C212.781754,320.834778 212.520142,320.629272 212.148438,320.197540 
	C212.321976,320.159790 212.605621,320.348236 212.966309,320.788513 
z"/>
<path fill="#E1E8E7" opacity="1.000000" stroke="none" 
	d="
M348.093201,168.261307 
	C348.061890,188.589676 348.056213,208.918121 347.986115,229.246353 
	C347.959625,236.933243 345.821960,239.123184 338.252014,239.129257 
	C279.098267,239.176666 219.944519,239.194901 160.790771,239.197556 
	C155.065887,239.197815 152.319305,236.302460 152.283203,229.922318 
	C152.187073,212.926590 152.250473,195.929993 152.217819,178.933807 
	C152.211761,175.773270 152.053619,172.613037 151.822144,168.789825 
	C151.799225,166.983521 152.007156,165.841446 152.026016,164.696274 
	C152.131897,158.270493 153.895844,155.974808 158.791824,155.987839 
	C163.717834,156.000946 165.844864,158.476898 165.754547,164.692612 
	C165.634476,172.957275 165.131256,181.217758 165.093094,189.481430 
	C165.080521,192.206894 166.000061,194.936661 166.371155,198.019852 
	C166.003265,204.479126 165.604630,210.581543 165.545288,216.687225 
	C165.438202,227.707672 164.789139,225.590576 174.805466,225.904053 
	C178.064499,226.006042 179.134995,224.695572 179.080902,221.492645 
	C178.898972,210.717697 178.940857,199.938965 178.956024,188.689514 
	C178.911423,183.800919 178.807907,179.384506 178.794205,174.520020 
	C178.833649,170.729919 178.783279,167.387878 178.830902,163.581726 
	C179.329651,156.100067 179.730377,149.082520 180.335800,141.973511 
	C180.796478,141.705643 180.973541,141.469925 181.511917,141.171204 
	C191.715820,140.706818 192.011810,141.072983 192.076416,150.838684 
	C192.117828,157.096542 192.457077,163.352432 192.503906,170.014008 
	C192.213470,185.357285 192.056625,200.295593 191.958969,215.234283 
	C191.888931,225.949203 191.927078,225.764908 202.842224,225.930252 
	C206.920715,225.992050 207.964905,224.487274 207.938721,220.721237 
	C207.795532,200.120132 207.826675,179.517822 207.840210,158.462936 
	C207.975479,145.048157 208.068451,132.086365 208.497742,118.985443 
	C216.301941,114.680466 220.931793,117.451317 221.021637,126.035431 
	C221.113831,134.841492 221.339478,143.646149 221.388550,152.877106 
	C221.222946,176.100876 221.193893,198.899033 221.104919,221.696930 
	C221.093735,224.559113 222.009308,225.876709 225.154175,225.856735 
	C241.796066,225.750977 258.439270,225.781433 275.081451,225.869507 
	C277.879547,225.884323 278.883392,224.867920 278.865692,222.072968 
	C278.718201,198.777359 278.666504,175.481140 278.679871,151.720123 
	C278.809814,141.759125 278.981171,132.260880 278.825195,122.768021 
	C278.746185,117.958382 281.354919,116.668129 285.403625,116.807076 
	C289.741577,116.955948 291.910126,119.759567 291.927704,125.096054 
	C291.963928,136.090698 291.981659,147.085419 291.945496,158.540253 
	C291.853699,179.591507 291.761444,200.183044 291.909180,220.772842 
	C291.921204,222.445999 293.540558,225.511078 294.471985,225.533997 
	C298.767700,225.639725 303.087311,224.920090 307.383301,224.377350 
	C307.568237,224.353989 307.700226,223.154404 307.696259,222.503708 
	C307.589142,205.076279 307.460968,187.648972 307.461182,169.758514 
	C307.521759,162.351501 307.258240,155.402039 307.451965,148.465347 
	C307.628906,142.130737 309.256866,140.797592 315.264557,141.033661 
	C316.422150,141.079132 317.576324,141.211151 318.734283,141.268646 
	C318.736481,141.234039 318.715881,141.317657 318.782562,141.709045 
	C319.291443,144.681244 320.085083,147.257767 320.116699,149.843613 
	C320.276642,162.922394 320.238434,176.003616 320.254333,189.547028 
	C320.228668,200.300446 320.115936,210.592758 320.312927,220.879135 
	C320.344330,222.518555 321.549438,225.348419 322.584930,225.532745 
	C325.959686,226.133530 329.516235,225.894333 332.980499,225.654984 
	C333.655701,225.608307 334.771027,224.107895 334.768158,223.281189 
	C334.739624,215.006088 334.519531,206.731644 334.490753,197.976776 
	C334.719666,186.233978 334.813904,174.971451 334.901703,163.708878 
	C334.943298,158.376785 336.679718,156.247086 341.141632,156.081604 
	C345.680145,155.913254 347.835999,158.341385 347.983002,163.790695 
	C348.023163,165.280807 348.056671,166.771103 348.093201,168.261307 
z"/>
<path fill="#EF7871" opacity="1.000000" stroke="none" 
	d="
M125.213943,189.435364 
	C122.163078,189.687836 120.932419,188.501785 120.921494,185.215332 
	C120.901237,179.118530 120.357109,173.023468 120.475708,166.463623 
	C126.773163,165.997009 132.626785,166.043335 138.478317,165.953201 
	C139.743607,165.933731 141.187500,165.724854 142.227554,165.082520 
	C145.313339,163.176865 147.435272,163.926071 149.024475,167.458191 
	C149.107056,168.530792 149.172897,169.143433 149.238724,169.756088 
	C148.992188,170.147003 148.745651,170.537933 148.084686,170.838058 
	C147.409470,171.007996 147.148697,171.268738 146.887909,171.529465 
	C140.430969,176.969849 133.974030,182.410233 126.899559,187.991364 
	C125.924072,188.544403 125.566109,188.956726 125.208145,189.369049 
	C125.208145,189.369049 125.204239,189.414444 125.213943,189.435364 
z"/>
<path fill="#EF7871" opacity="1.000000" stroke="none" 
	d="
M380.006104,166.009506 
	C380.006195,172.607269 379.966309,179.205399 380.027496,185.802597 
	C380.049744,188.203766 379.728333,190.149246 376.268921,190.139862 
	C375.845520,190.204346 375.860718,190.134048 375.768921,189.907791 
	C375.368652,189.494751 375.060181,189.307953 374.751740,189.121170 
	C374.431610,189.057068 374.184448,188.886978 373.903412,188.045990 
	C373.052002,187.186462 372.307404,186.891815 371.562775,186.597153 
	C371.562775,186.597153 371.686859,186.619781 371.613708,186.266418 
	C371.015594,185.644348 370.490662,185.375656 369.965729,185.106964 
	C369.677765,184.938492 369.389801,184.770020 368.871674,184.125977 
	C368.321777,183.487625 368.002045,183.324844 367.682312,183.162079 
	C367.682312,183.162079 367.245056,182.999893 367.087952,182.472626 
	C365.893005,181.340286 364.855194,180.735229 363.817383,180.130173 
	C363.817383,180.130173 363.899750,180.121582 363.878174,179.798325 
	C362.604248,178.646591 361.351868,177.818115 360.099518,176.989639 
	C359.784637,176.885590 359.469757,176.781540 359.009460,176.092484 
	C357.248138,174.356674 355.632294,173.205887 354.016418,172.055084 
	C353.684021,172.089478 353.390289,171.998688 353.004944,171.214996 
	C352.246521,169.096359 351.618408,167.545441 351.412811,165.996613 
	C361.225586,166.002319 370.615845,166.005920 380.006104,166.009506 
z"/>
<path fill="#ED847C" opacity="1.000000" stroke="none" 
	d="
M149.613617,169.660522 
	C149.172897,169.143433 149.107056,168.530792 149.274765,167.151230 
	C149.671432,164.927841 149.915436,163.475067 149.982712,162.014175 
	C150.197952,157.339493 152.945190,153.846237 159.209274,152.922775 
	C161.409073,152.598480 164.822556,155.306519 166.388702,157.537674 
	C167.630768,159.307129 166.899872,162.461502 167.032654,165.438721 
	C167.348694,168.588394 167.677094,171.300308 168.004364,174.411835 
	C169.869659,178.983627 168.671265,183.137161 168.061386,187.337265 
	C167.748840,189.489594 168.515778,191.912460 171.242523,190.512466 
	C174.143173,189.023209 177.557053,187.416977 177.045288,182.908356 
	C176.750092,180.307877 176.986191,177.647095 177.270386,175.003677 
	C177.939880,174.985291 178.322128,174.976685 178.704391,174.968079 
	C178.807907,179.384506 178.911423,183.800919 178.623291,188.734100 
	C174.318893,192.055389 170.406143,194.859924 166.493378,197.664459 
	C166.000061,194.936661 165.080521,192.206894 165.093094,189.481430 
	C165.131256,181.217758 165.634476,172.957275 165.754547,164.692612 
	C165.844864,158.476898 163.717834,156.000946 158.791824,155.987839 
	C153.895844,155.974808 152.131897,158.270493 152.026016,164.696274 
	C152.007156,165.841446 151.799225,166.983521 151.518158,168.480087 
	C150.901321,169.077087 150.444916,169.321014 149.613617,169.660522 
z"/>
<path fill="#E58983" opacity="1.000000" stroke="none" 
	d="
M350.990295,165.994507 
	C351.618408,167.545441 352.246521,169.096359 352.876709,171.017151 
	C351.475586,170.429260 350.072357,169.471512 348.381195,168.387543 
	C348.056671,166.771103 348.023163,165.280807 347.983002,163.790695 
	C347.835999,158.341385 345.680145,155.913254 341.141632,156.081604 
	C336.679718,156.247086 334.943298,158.376785 334.901703,163.708878 
	C334.813904,174.971451 334.719666,186.233978 334.200958,197.859131 
	C332.422455,197.240891 331.071075,196.260040 329.817566,195.180695 
	C329.915466,195.082184 330.111237,194.885178 330.496887,194.887024 
	C331.585419,193.635773 332.842865,192.405106 332.894562,191.125717 
	C333.111298,185.763107 332.966858,180.385895 332.968536,174.567078 
	C332.661560,171.069885 332.340729,168.019684 332.022034,164.566528 
	C332.944580,160.705841 332.001373,156.415070 336.989075,154.948547 
	C346.597626,152.123322 350.991364,155.493851 350.990295,165.994507 
z"/>
<path fill="#E58983" opacity="1.000000" stroke="none" 
	d="
M354.148560,172.351440 
	C355.632294,173.205887 357.248138,174.356674 358.878906,175.874207 
	C357.356079,175.043213 355.818359,173.845490 354.148560,172.351440 
z"/>
<path fill="#E58983" opacity="1.000000" stroke="none" 
	d="
M360.242279,177.272049 
	C361.351868,177.818115 362.604248,178.646591 363.868286,179.838531 
	C362.714996,179.319489 361.550018,178.436981 360.242279,177.272049 
z"/>
<path fill="#E58983" opacity="1.000000" stroke="none" 
	d="
M363.938507,180.404938 
	C364.855194,180.735229 365.893005,181.340286 366.948853,182.285477 
	C365.997803,181.976959 365.028717,181.328323 363.938507,180.404938 
z"/>
<path fill="#CE8783" opacity="1.000000" stroke="none" 
	d="
M371.714600,186.838593 
	C372.307404,186.891815 373.052002,187.186462 373.824768,187.829697 
	C373.190765,187.812195 372.528595,187.446106 371.714600,186.838593 
z"/>
<path fill="#D08B88" opacity="1.000000" stroke="none" 
	d="
M125.483810,189.314407 
	C125.566109,188.956726 125.924072,188.544403 126.567024,188.098648 
	C126.487831,188.463394 126.123657,188.861588 125.483810,189.314407 
z"/>
<path fill="#CE8783" opacity="1.000000" stroke="none" 
	d="
M370.059814,185.383286 
	C370.490662,185.375656 371.015594,185.644348 371.558472,186.236176 
	C371.102203,186.259415 370.628052,185.959518 370.059814,185.383286 
z"/>
<path fill="#CE8783" opacity="1.000000" stroke="none" 
	d="
M374.853394,189.383118 
	C375.060181,189.307953 375.368652,189.494751 375.791199,189.934601 
	C375.588562,190.006790 375.271820,189.825928 374.853394,189.383118 
z"/>
<path fill="#ED847C" opacity="1.000000" stroke="none" 
	d="
M147.208389,171.476776 
	C147.148697,171.268738 147.409470,171.007996 147.835449,170.862427 
	C147.843399,171.126404 147.686142,171.275238 147.208389,171.476776 
z"/>
<path fill="#CE8783" opacity="1.000000" stroke="none" 
	d="
M367.811523,183.404449 
	C368.002045,183.324844 368.321777,183.487625 368.771057,183.891495 
	C368.580658,183.970657 368.260681,183.808746 367.811523,183.404449 
z"/>
<path fill="#E96763" opacity="1.000000" stroke="none" 
	d="
M191.999512,52.999336 
	C191.999023,52.998669 192.210800,52.653873 192.210800,52.653873 
	C192.210800,52.653873 192.194870,52.909290 192.098053,52.955132 
	C192.001221,53.000969 192.000000,53.000000 191.999512,52.999336 
z"/>
<path fill="#F4716A" opacity="1.000000" stroke="none" 
	d="
M150.978912,84.959366 
	C155.616791,79.530708 158.623245,72.445671 166.541229,69.971931 
	C193.998489,69.640259 221.097137,69.192093 248.197449,69.036453 
	C276.164185,68.875839 304.132507,68.999809 332.574219,68.997772 
	C337.973297,73.555023 342.988037,78.022217 347.779968,82.716835 
	C349.743835,84.640839 351.226501,87.055992 352.915771,89.943352 
	C350.880432,93.775208 348.740570,95.506401 345.660797,91.634247 
	C345.024414,90.834106 343.756805,90.181526 342.729248,90.099655 
	C324.836700,88.674019 306.949371,87.116371 289.031769,86.100548 
	C280.374115,85.609711 271.656525,86.218613 262.965790,86.251282 
	C258.022705,86.269867 253.075363,85.979454 248.136429,86.098343 
	C241.079269,86.268219 234.030334,86.798904 226.973190,86.938461 
	C224.352783,86.990273 221.714706,86.072365 219.092331,86.111427 
	C205.775146,86.309799 192.459213,86.632179 179.145340,87.000618 
	C169.762299,87.260277 160.383240,87.662888 151.001190,88.000839 
	C151.000000,88.000000 150.998245,87.998878 150.998917,87.619354 
	C150.992691,86.479683 150.985809,85.719521 150.978912,84.959366 
z"/>
<path fill="#282728" opacity="1.000000" stroke="none" 
	d="
M257.982971,370.883820 
	C257.170868,371.471924 256.375427,372.099365 255.308258,372.873444 
	C254.285919,369.774689 253.535355,366.529297 252.425537,363.174011 
	C252.058075,356.676910 252.049896,350.289673 252.076263,343.430908 
	C255.961273,344.483521 260.512238,344.858734 262.714447,349.137482 
	C263.656158,350.967163 264.349762,352.924530 265.502716,355.261414 
	C264.888000,357.465912 263.926697,359.232910 262.730286,360.779419 
	C261.480164,359.096283 260.465149,357.633606 259.450134,356.170929 
	C259.119049,356.382599 258.787964,356.594269 258.456879,356.805939 
	C259.287018,358.865265 260.117126,360.924561 261.051636,363.377686 
	C260.411652,365.824249 259.667236,367.876953 258.922821,369.929688 
	C258.922821,369.929688 258.975800,370.003479 258.665833,369.968018 
	C258.210541,370.273071 258.065216,370.613525 257.919891,370.954010 
	C257.919891,370.954010 257.999603,370.923157 257.982971,370.883820 
M258.096161,351.204803 
	C257.913452,352.145874 257.730743,353.086945 257.548004,354.028015 
	C257.976562,354.047363 258.405151,354.066711 258.833710,354.086090 
	C258.759949,353.091248 258.686218,352.096405 258.096161,351.204803 
z"/>
<path fill="#131313" opacity="1.000000" stroke="none" 
	d="
M226.485138,340.986511 
	C227.165680,341.815887 227.630798,342.876801 228.095917,343.937714 
	C227.581955,344.059265 227.067993,344.180817 226.554031,344.302338 
	C226.459259,343.274231 226.364502,342.246124 226.485138,340.986511 
z"/>
<path fill="#131313" opacity="1.000000" stroke="none" 
	d="
M226.804688,334.372559 
	C227.116562,335.142792 227.124710,335.834747 227.132843,336.526733 
	C226.565231,336.373260 225.997635,336.219788 225.430054,336.066345 
	C225.787018,335.475647 226.143997,334.884979 226.804688,334.372559 
z"/>
<path fill="#131313" opacity="1.000000" stroke="none" 
	d="
M221.997864,347.998169 
	C222.364883,346.759613 222.734024,345.522919 223.103165,344.286194 
	C223.600708,344.502594 224.098236,344.719025 224.595779,344.935425 
	C223.918518,345.855621 223.241257,346.775818 222.283966,347.849365 
	C222.003952,348.002716 222.000000,348.000000 221.997864,347.998169 
z"/>
<path fill="#131313" opacity="1.000000" stroke="none" 
	d="
M223.968079,335.244629 
	C223.864334,335.954407 223.749435,336.407013 223.634537,336.859650 
	C223.470688,336.851654 223.306839,336.843689 223.142990,336.835693 
	C223.142990,336.065918 223.127975,335.295502 223.158554,334.526947 
	C223.163361,334.406189 223.374908,334.293701 223.490875,334.177399 
	C223.646225,334.447418 223.801559,334.717438 223.968079,335.244629 
z"/>
<path fill="#131313" opacity="1.000000" stroke="none" 
	d="
M220.478638,331.943604 
	C220.178650,331.557831 220.130020,331.109009 220.150482,330.326813 
	C220.389725,330.622467 220.559845,331.251556 220.478638,331.943604 
z"/>
<path fill="#131313" opacity="1.000000" stroke="none" 
	d="
M222.959595,341.483643 
	C222.831940,341.162292 222.904266,340.845062 222.976593,340.527863 
	C223.037598,340.847839 223.098602,341.167786 222.959595,341.483643 
z"/>
<path fill="#131313" opacity="1.000000" stroke="none" 
	d="
M227.487106,329.480347 
	C227.515427,329.467621 227.458786,329.493073 227.487106,329.480347 
z"/>
<path fill="#131313" opacity="1.000000" stroke="none" 
	d="
M224.481171,328.511047 
	C224.468521,328.482819 224.493820,328.539246 224.481171,328.511047 
z"/>
<path fill="#131313" opacity="1.000000" stroke="none" 
	d="
M225.476517,350.514496 
	C225.461563,350.483002 225.491470,350.545990 225.476517,350.514496 
z"/>
<path fill="#2F2F2F" opacity="1.000000" stroke="none" 
	d="
M318.366760,352.870758 
	C318.541779,351.754150 319.036407,350.515686 319.862213,349.138916 
	C319.691071,350.250031 319.188721,351.499451 318.366760,352.870758 
z"/>
<path fill="#2F2F2F" opacity="1.000000" stroke="none" 
	d="
M317.275085,355.099609 
	C317.190033,354.700684 317.332672,354.064301 317.743378,353.236084 
	C317.841919,353.650208 317.672363,354.256195 317.275085,355.099609 
z"/>
<path fill="#F57670" opacity="1.000000" stroke="none" 
	d="
M150.691467,85.136414 
	C150.985809,85.719521 150.992691,86.479683 150.734253,87.772560 
	C150.266205,89.062286 150.063461,89.819283 149.860733,90.576286 
	C150.294083,90.569771 150.727448,90.563263 151.160797,90.556755 
	C151.108002,89.705063 151.055206,88.853371 151.002396,88.001678 
	C160.383240,87.662888 169.762299,87.260277 179.145340,87.000618 
	C192.459213,86.632179 205.775146,86.309799 219.092331,86.111427 
	C221.714706,86.072365 224.352783,86.990273 226.973190,86.938461 
	C234.030334,86.798904 241.079269,86.268219 248.136429,86.098343 
	C253.075363,85.979454 258.022705,86.269867 262.965790,86.251282 
	C271.656525,86.218613 280.374115,85.609711 289.031769,86.100548 
	C306.949371,87.116371 324.836700,88.674019 342.729248,90.099655 
	C343.756805,90.181526 345.024414,90.834106 345.660797,91.634247 
	C348.740570,95.506401 350.880432,93.775208 352.972168,90.284164 
	C356.610687,95.396385 360.180511,100.863434 363.424561,106.665024 
	C287.704651,106.991707 212.310562,106.983864 136.916473,106.976013 
	C140.147339,101.283928 143.311142,95.552048 146.649994,89.924026 
	C147.650146,88.238152 149.139038,86.842216 150.691467,85.136414 
z"/>
<path fill="#F6827C" opacity="1.000000" stroke="none" 
	d="
M136.598328,107.055481 
	C212.310562,106.983864 287.704651,106.991707 363.572540,106.998154 
	C366.362610,111.764343 368.696991,116.523270 370.983185,121.305244 
	C371.610016,122.616356 372.092255,123.996582 372.346130,125.668549 
	C346.045654,125.995979 320.039886,125.999954 294.024719,125.575455 
	C293.942108,117.363899 292.772308,115.635162 286.760529,114.425629 
	C281.691010,113.405678 278.739380,115.276756 276.075317,121.119141 
	C275.471008,122.444435 274.705383,123.696182 273.630920,125.153572 
	C271.286652,125.549835 269.326080,125.961586 267.364014,125.968941 
	C252.570648,126.024376 237.776978,126.000305 222.971558,125.602196 
	C221.959793,122.146225 220.959869,119.089134 220.114746,115.702744 
	C220.336060,114.019897 220.402557,112.666367 220.469070,111.312828 
	C219.938187,111.113579 219.407318,110.914330 218.876450,110.715080 
	C217.919510,112.147202 216.962570,113.579330 215.629913,115.013504 
	C214.502823,115.008827 213.751450,115.002106 212.945496,114.722580 
	C212.577713,114.164200 212.264496,113.878616 211.951279,113.593040 
	C211.635208,114.064568 211.319122,114.536095 210.732239,115.154793 
	C209.636765,116.202484 208.812103,117.102997 207.636383,117.986313 
	C206.090546,117.546082 204.895798,117.123047 203.238922,116.536392 
	C202.806335,119.843750 202.404999,122.912262 201.534790,125.985382 
	C178.814743,125.992424 156.563492,126.021385 134.312515,125.954132 
	C132.207291,125.947769 130.103912,125.337402 127.999680,125.007446 
	C128.553665,123.858139 129.107635,122.708839 130.182632,121.213959 
	C131.800949,117.577583 132.898254,114.286797 133.995575,110.996017 
	C134.757126,109.708992 135.518661,108.421974 136.598328,107.055481 
z"/>
<path fill="#F37670" opacity="1.000000" stroke="none" 
	d="
M294.034119,126.003937 
	C320.039886,125.999954 346.045654,125.995979 372.518372,125.988617 
	C374.289795,130.736603 375.594269,135.487961 376.488770,140.619980 
	C357.717163,141.000244 339.355499,140.999832 320.610840,141.016251 
	C319.723877,141.127930 319.219879,141.222794 318.715881,141.317657 
	C318.715881,141.317657 318.736481,141.234039 318.715454,140.862457 
	C315.786438,140.085953 312.156555,138.402771 310.125031,139.549957 
	C306.244751,141.741150 302.563385,140.884232 298.742523,141.037231 
	C295.412750,141.170547 293.849060,139.811493 293.977448,136.391968 
	C294.107269,132.933456 294.024048,129.466949 294.034119,126.003937 
z"/>
<path fill="#F6827A" opacity="1.000000" stroke="none" 
	d="
M320.993805,140.999420 
	C339.355499,140.999832 357.717163,141.000244 376.549805,141.000458 
	C378.019897,149.027740 379.019043,157.055206 380.012146,165.546082 
	C370.615845,166.005920 361.225586,166.002319 351.412842,165.996613 
	C350.991364,155.493851 346.597626,152.123322 336.989075,154.948547 
	C332.001373,156.415070 332.944580,160.705841 331.613434,164.558395 
	C328.467651,164.634857 325.732605,164.316513 322.995972,163.557037 
	C324.673859,155.531525 323.244293,148.228348 320.993805,140.999420 
z"/>
<path fill="#F37670" opacity="1.000000" stroke="none" 
	d="
M127.751091,125.293556 
	C130.103912,125.337402 132.207291,125.947769 134.312515,125.954132 
	C156.563492,126.021385 178.814743,125.992424 201.857452,125.854019 
	C203.686676,126.162567 205.617813,126.596184 205.623383,127.053291 
	C205.677032,131.452194 206.644028,136.553406 204.717239,139.968369 
	C203.722321,141.731720 197.421127,140.601074 193.519760,140.559769 
	C192.440933,140.548355 191.352951,139.349564 190.299332,139.395004 
	C187.160782,139.530350 183.434128,137.015747 181.071701,141.174942 
	C180.973541,141.469925 180.796478,141.705643 180.058258,141.942871 
	C179.390625,141.990265 179.205231,141.976868 178.688049,141.713226 
	C176.546478,141.309692 174.737015,141.027649 172.926880,141.023209 
	C156.602188,140.983185 140.277405,140.991821 123.952637,140.986176 
	C125.135933,135.850677 126.319214,130.715164 127.751091,125.293556 
z"/>
<path fill="#F5837C" opacity="1.000000" stroke="none" 
	d="
M123.702545,141.268997 
	C140.277405,140.991821 156.602188,140.983185 172.926880,141.023209 
	C174.737015,141.027649 176.546478,141.309692 178.332870,141.813278 
	C177.558426,143.713425 176.300095,145.214828 176.146622,146.821747 
	C175.570053,152.858459 175.353882,158.929565 174.559433,164.990738 
	C171.759125,164.996094 169.402069,164.998505 167.045013,165.000931 
	C166.899872,162.461502 167.630768,159.307129 166.388702,157.537674 
	C164.822556,155.306519 161.409073,152.598480 159.209274,152.922775 
	C152.945190,153.846237 150.197952,157.339493 149.982712,162.014175 
	C149.915436,163.475067 149.671432,164.927841 149.258026,166.691284 
	C147.435272,163.926071 145.313339,163.176865 142.227554,165.082520 
	C141.187500,165.724854 139.743607,165.933731 138.478317,165.953201 
	C132.626785,166.043335 126.773163,165.997009 120.489090,165.999390 
	C121.189423,157.850067 122.320946,149.700943 123.702545,141.268997 
z"/>
<path fill="#ED847C" opacity="1.000000" stroke="none" 
	d="
M133.735092,111.221703 
	C132.898254,114.286797 131.800949,117.577583 130.339554,120.929474 
	C131.141846,117.809517 132.308243,114.628456 133.735092,111.221703 
z"/>
<path fill="#1E1D1E" opacity="1.000000" stroke="none" 
	d="
M333.597656,316.980194 
	C333.987579,316.971558 334.473877,316.996643 334.826294,317.137543 
	C335.456970,317.190247 335.735260,317.102051 336.013550,317.013824 
	C336.013550,317.013824 336.003418,317.001984 336.009705,317.011108 
	C336.547150,317.195953 337.078247,317.371643 337.791016,317.766205 
	C337.972687,317.985077 337.996552,317.996948 337.784424,318.117371 
	C337.314728,318.443970 337.122223,318.699280 336.994812,319.003662 
	C333.055511,321.407959 329.391937,325.109680 324.109711,321.354553 
	C324.442810,320.983795 324.887054,320.977234 325.869995,320.852478 
	C326.664978,320.538239 326.859070,320.292999 326.991028,319.998535 
	C329.063263,318.995300 331.135468,317.992065 333.597656,316.980194 
M332.844849,318.783966 
	C332.750580,318.575958 332.685272,318.343964 332.544769,318.174194 
	C332.501068,318.121338 332.253754,318.236969 332.099670,318.275482 
	C332.230499,318.469940 332.361328,318.664398 332.844849,318.783966 
z"/>
<path fill="#0E0E0E" opacity="1.000000" stroke="none" 
	d="
M337.250763,319.006897 
	C337.122223,318.699280 337.314728,318.443970 337.778656,318.111938 
	C337.991364,318.158142 337.997772,318.330139 338.002075,318.751068 
	C338.000000,319.000000 338.018616,319.015137 338.018616,319.015137 
	C337.847992,319.013489 337.677338,319.011841 337.250763,319.006897 
z"/>
<path fill="#1E1D1E" opacity="1.000000" stroke="none" 
	d="
M338.007568,319.009155 
	C338.015167,319.018341 338.355408,319.222626 338.355408,319.222626 
	C338.355408,319.222626 338.104828,319.206299 338.061707,319.110718 
	C338.018616,319.015137 338.000000,319.000000 338.007568,319.009155 
z"/>
<path fill="#8A8A8A" opacity="1.000000" stroke="none" 
	d="
M262.965393,360.999878 
	C263.926697,359.232910 264.888000,357.465912 265.802185,355.361633 
	C266.083801,354.536774 266.412506,354.049255 267.146362,353.253967 
	C269.366364,353.633850 271.181274,354.321472 272.996155,355.009064 
	C273.748993,355.824310 274.501801,356.639587 275.370605,357.580414 
	C273.434021,359.358643 271.597778,361.044769 269.143677,362.820007 
	C267.027740,362.271973 265.529694,361.634796 263.765076,360.996826 
	C263.320831,360.997314 263.143127,360.998596 262.965393,360.999878 
z"/>
<path fill="#8A8A8A" opacity="1.000000" stroke="none" 
	d="
M268.216675,329.466278 
	C269.396881,328.307587 270.627350,327.500977 271.952148,326.364075 
	C272.311279,326.241425 272.576080,326.448975 272.943115,327.236877 
	C272.078308,330.226898 271.111298,332.636566 270.144348,335.046234 
	C269.775574,337.891815 269.317993,340.732361 269.156067,343.589661 
	C269.136932,343.927612 270.737152,344.357330 271.804871,344.874512 
	C271.761597,345.506989 271.500183,346.009521 271.118835,346.755859 
	C270.998932,346.999725 271.013977,346.978973 271.013977,346.978973 
	C270.687622,347.436615 270.361237,347.894257 269.639954,348.660034 
	C268.784058,348.962006 268.323059,348.955841 267.862091,348.949707 
	C266.707520,348.085876 265.552948,347.222015 264.251160,346.247986 
	C269.213501,344.966553 267.581940,341.015656 267.849030,337.445679 
	C267.956970,334.626465 268.111969,332.222382 268.216675,329.466278 
z"/>
<path fill="#BDBDBD" opacity="1.000000" stroke="none" 
	d="
M264.031616,360.997650 
	C265.529694,361.634796 267.027740,362.271973 268.908844,362.955170 
	C266.070221,365.403748 262.848572,367.806244 259.274872,370.069214 
	C259.667236,367.876953 260.411652,365.824249 261.345764,363.256226 
	C262.367554,362.159882 263.199585,361.578766 264.031616,360.997650 
z"/>
<path fill="#707070" opacity="1.000000" stroke="none" 
	d="
M267.896484,348.974670 
	C268.323059,348.955841 268.784058,348.962006 269.589111,348.947235 
	C270.949280,350.716644 271.965363,352.507019 272.988770,354.653198 
	C271.181274,354.321472 269.366364,353.633850 267.245819,352.973480 
	C266.888062,352.142487 266.835999,351.284210 267.125488,350.047241 
	C267.704132,349.469849 267.877899,349.226013 267.988281,348.936981 
	C267.988281,348.936981 267.930847,348.999664 267.896484,348.974670 
z"/>
<path fill="#BDBDBD" opacity="1.000000" stroke="none" 
	d="
M258.250122,371.018372 
	C258.065216,370.613525 258.210541,370.273071 258.651367,369.925171 
	C258.824707,370.306091 258.702545,370.694397 258.250122,371.018372 
z"/>
<path fill="#8A8A8A" opacity="1.000000" stroke="none" 
	d="
M270.988708,347.007446 
	C270.978455,347.015198 271.323730,347.181274 271.323730,347.181274 
	C271.323730,347.181274 271.102936,347.161804 271.058472,347.070374 
	C271.013977,346.978973 270.998932,346.999725 270.988708,347.007446 
z"/>
<path fill="#3F3F3F" opacity="1.000000" stroke="none" 
	d="
M262.499786,342.141479 
	C261.894928,341.587891 261.500671,340.828674 261.106415,340.069489 
	C261.515686,339.933472 261.924988,339.797455 262.334259,339.661438 
	C262.459625,340.419586 262.584991,341.177734 262.499786,342.141479 
z"/>
<path fill="#8A8A8A" opacity="1.000000" stroke="none" 
	d="
M267.738251,348.984497 
	C267.877899,349.226013 267.704132,349.469849 267.280396,349.795135 
	C267.225281,349.625122 267.356750,349.328552 267.738251,348.984497 
z"/>
<path fill="#3F3F3F" opacity="1.000000" stroke="none" 
	d="
M262.521851,344.525208 
	C262.488831,344.540955 262.554901,344.509460 262.521851,344.525208 
z"/>
<path fill="#767676" opacity="1.000000" stroke="none" 
	d="
M270.490204,335.092407 
	C271.111298,332.636566 272.078308,330.226898 273.079681,327.451965 
	C275.761719,329.108398 278.357330,331.204529 281.085175,333.111603 
	C282.041779,333.780365 283.323303,333.984406 284.692810,334.222626 
	C284.944336,337.396545 284.959442,340.748505 284.921082,344.556519 
	C283.089600,344.029602 281.384979,342.855408 279.506439,342.134186 
	C278.348694,341.689667 276.925629,341.936249 275.310852,341.936279 
	C275.000000,342.000000 274.997559,341.997559 274.997559,341.997559 
	C275.119354,338.795715 274.438721,336.080719 270.490204,335.092407 
z"/>
<path fill="#767676" opacity="1.000000" stroke="none" 
	d="
M284.698975,317.174255 
	C284.798309,317.088348 284.843384,317.500244 284.820953,317.705933 
	C284.533051,317.741425 284.466736,317.524292 284.698975,317.174255 
z"/>
<path fill="#767676" opacity="1.000000" stroke="none" 
	d="
M275.000824,342.001221 
	C274.781281,342.203430 274.573334,342.422058 274.331543,342.592682 
	C274.273651,342.633484 274.102997,342.514435 273.984222,342.468903 
	C274.186920,342.323730 274.389618,342.178528 274.794922,342.015442 
	C274.997559,341.997559 275.000000,342.000000 275.000824,342.001221 
z"/>
<path fill="#333333" opacity="1.000000" stroke="none" 
	d="
M197.060730,355.542053 
	C197.251526,355.075775 197.418549,355.066681 197.837143,355.049347 
	C198.675980,358.574982 199.429367,362.091614 199.797836,365.648163 
	C200.091599,368.483704 199.915985,371.367889 199.948120,374.641846 
	C199.521423,375.027405 199.095367,375.001617 198.349045,374.975647 
	C197.698181,368.650085 197.367569,362.324677 197.060730,355.542053 
z"/>
<path fill="#131313" opacity="1.000000" stroke="none" 
	d="
M326.792236,320.123627 
	C326.859070,320.292999 326.664978,320.538239 326.203217,320.850708 
	C326.145844,320.685822 326.344421,320.446350 326.792236,320.123627 
z"/>
<path fill="#0E0E0E" opacity="1.000000" stroke="none" 
	d="
M335.750366,317.009735 
	C335.735260,317.102051 335.456970,317.190247 335.069702,317.144226 
	C335.136169,317.008545 335.311646,317.007080 335.750366,317.009735 
z"/>
<path fill="#1A2933" opacity="1.000000" stroke="none" 
	d="
M278.585907,152.185104 
	C278.666504,175.481140 278.718201,198.777359 278.865692,222.072968 
	C278.883392,224.867920 277.879547,225.884323 275.081451,225.869507 
	C258.439270,225.781433 241.796066,225.750977 225.154175,225.856735 
	C222.009308,225.876709 221.093735,224.559113 221.104919,221.696930 
	C221.193893,198.899033 221.222946,176.100876 221.691589,152.749969 
	C224.012329,150.474533 225.911835,148.751923 227.967560,146.954773 
	C228.123795,146.880219 228.258698,146.562973 228.601166,146.464081 
	C234.180023,142.151138 239.682678,138.220230 244.564835,133.629471 
	C248.183701,130.226578 251.244293,129.361954 254.969421,133.004272 
	C254.975952,133.038681 255.045593,133.031174 255.174713,133.289810 
	C255.798828,133.818787 256.293793,134.089127 256.779175,134.311722 
	C256.769562,134.263977 256.690369,134.320694 256.823914,134.599670 
	C257.952118,135.588348 258.946808,136.298050 259.946899,137.031281 
	C259.952332,137.054810 260.000549,137.057739 260.128723,137.331558 
	C260.768829,137.906708 261.280731,138.208023 261.913818,138.776489 
	C262.949219,139.744339 263.863434,140.445084 264.929260,141.450775 
	C269.582550,145.232193 274.084229,148.708649 278.585907,152.185104 
z"/>
<path fill="#202E37" opacity="1.000000" stroke="none" 
	d="
M307.336334,170.221649 
	C307.460968,187.648972 307.589142,205.076279 307.696259,222.503708 
	C307.700226,223.154404 307.568237,224.353989 307.383301,224.377350 
	C303.087311,224.920090 298.767700,225.639725 294.471985,225.533997 
	C293.540558,225.511078 291.921204,222.445999 291.909180,220.772842 
	C291.761444,200.183044 291.853699,179.591507 292.269623,158.614639 
	C297.548950,162.226440 302.442657,166.224045 307.336334,170.221649 
z"/>
<path fill="#202E37" opacity="1.000000" stroke="none" 
	d="
M207.797928,158.915924 
	C207.826675,179.517822 207.795532,200.120132 207.938721,220.721237 
	C207.964905,224.487274 206.920715,225.992050 202.842224,225.930252 
	C191.927078,225.764908 191.888931,225.949203 191.958969,215.234283 
	C192.056625,200.295593 192.213470,185.357285 192.842819,169.990112 
	C198.159744,166.012909 202.978836,162.464417 207.797928,158.915924 
z"/>
<path fill="#E58983" opacity="1.000000" stroke="none" 
	d="
M307.461182,169.758514 
	C302.442657,166.224045 297.548950,162.226440 292.331146,158.154480 
	C291.981659,147.085419 291.963928,136.090698 291.927704,125.096054 
	C291.910126,119.759567 289.741577,116.955948 285.403625,116.807076 
	C281.354919,116.668129 278.746185,117.958382 278.825195,122.768021 
	C278.981171,132.260880 278.809814,141.759125 278.679871,151.720123 
	C274.084229,148.708649 269.582550,145.232193 265.360779,141.411026 
	C267.087433,141.048477 268.534180,141.030640 270.001740,141.373474 
	C271.730255,143.607849 273.437927,145.481522 275.145599,147.355209 
	C275.635376,147.100861 276.125122,146.846512 276.614899,146.592178 
	C276.731873,144.400681 276.848846,142.209198 276.974426,139.550323 
	C276.984741,135.522720 277.238647,131.934723 276.851471,128.417313 
	C276.715576,127.182983 275.005371,126.121948 274.013977,124.981781 
	C274.705383,123.696182 275.471008,122.444435 276.075317,121.119141 
	C278.739380,115.276756 281.691010,113.405678 286.760529,114.425629 
	C292.772308,115.635162 293.942108,117.363899 294.024719,125.575455 
	C294.024048,129.466949 294.107269,132.933456 293.977448,136.391968 
	C293.849060,139.811493 295.412750,141.170547 298.742523,141.037231 
	C302.563385,140.884232 306.244751,141.741150 310.125031,139.549957 
	C312.156555,138.402771 315.786438,140.085953 318.713257,140.897064 
	C317.576324,141.211151 316.422150,141.079132 315.264557,141.033661 
	C309.256866,140.797592 307.628906,142.130737 307.451965,148.465347 
	C307.258240,155.402039 307.521759,162.351501 307.461182,169.758514 
z"/>
<path fill="#253039" opacity="1.000000" stroke="none" 
	d="
M329.719696,195.279190 
	C331.071075,196.260040 332.422455,197.240891 334.063629,198.339386 
	C334.519531,206.731644 334.739624,215.006088 334.768158,223.281189 
	C334.771027,224.107895 333.655701,225.608307 332.980499,225.654984 
	C329.516235,225.894333 325.959686,226.133530 322.584930,225.532745 
	C321.549438,225.348419 320.344330,222.518555 320.312927,220.879135 
	C320.115936,210.592758 320.228668,200.300446 320.591736,189.550781 
	C323.869568,191.154022 326.794647,193.216614 329.719696,195.279190 
z"/>
<path fill="#ED847C" opacity="1.000000" stroke="none" 
	d="
M207.840210,158.462936 
	C202.978836,162.464417 198.159744,166.012909 193.001740,169.585297 
	C192.457077,163.352432 192.117828,157.096542 192.076416,150.838684 
	C192.011810,141.072983 191.715820,140.706818 181.511917,141.171204 
	C183.434128,137.015747 187.160782,139.530350 190.299332,139.395004 
	C191.352951,139.349564 192.440933,140.548355 193.519760,140.559769 
	C197.421127,140.601074 203.722321,141.731720 204.717239,139.968369 
	C206.644028,136.553406 205.677032,131.452194 205.623383,127.053291 
	C205.617813,126.596184 203.686676,126.162567 202.326324,125.849419 
	C202.404999,122.912262 202.806335,119.843750 203.238922,116.536392 
	C204.895798,117.123047 206.090546,117.546082 207.671814,118.267807 
	C208.092682,118.752510 208.127045,118.938538 208.161423,119.124573 
	C208.068451,132.086365 207.975479,145.048157 207.840210,158.462936 
z"/>
<path fill="#202E37" opacity="1.000000" stroke="none" 
	d="
M166.371155,198.019867 
	C170.406143,194.859924 174.318893,192.055389 178.564377,189.206268 
	C178.940857,199.938965 178.898972,210.717697 179.080902,221.492645 
	C179.134995,224.695572 178.064499,226.006042 174.805466,225.904053 
	C164.789139,225.590576 165.438202,227.707672 165.545288,216.687225 
	C165.604630,210.581543 166.003265,204.479126 166.371155,198.019867 
z"/>
<path fill="#E58983" opacity="1.000000" stroke="none" 
	d="
M329.817566,195.180695 
	C326.794647,193.216614 323.869568,191.154022 320.607117,189.087708 
	C320.238434,176.003616 320.276642,162.922394 320.116699,149.843613 
	C320.085083,147.257767 319.291443,144.681244 318.782562,141.709045 
	C319.219879,141.222794 319.723877,141.127930 320.610840,141.016251 
	C323.244293,148.228348 324.673859,155.531525 322.993256,164.015366 
	C322.996796,168.278015 323.001434,171.641235 323.068512,175.397919 
	C323.299835,178.039139 324.016052,180.420166 323.508820,182.503296 
	C322.755707,185.596008 323.678131,187.291550 326.040771,189.183105 
	C327.794952,190.587479 328.782318,192.949631 330.111237,194.885178 
	C330.111237,194.885178 329.915466,195.082184 329.817566,195.180695 
z"/>
<path fill="#EF7871" opacity="1.000000" stroke="none" 
	d="
M167.032654,165.438721 
	C169.402069,164.998505 171.759125,164.996094 174.881317,164.952362 
	C176.675262,164.622620 177.704086,164.334229 178.732910,164.045837 
	C178.783279,167.387878 178.833649,170.729919 178.794205,174.520020 
	C178.322128,174.976685 177.939880,174.985291 176.866058,174.982239 
	C173.451492,174.651123 170.728500,174.331665 168.005493,174.012207 
	C167.677094,171.300308 167.348694,168.588394 167.032654,165.438721 
z"/>
<path fill="#CE8783" opacity="1.000000" stroke="none" 
	d="
M208.497742,118.985443 
	C208.127045,118.938538 208.092682,118.752510 208.022888,118.285004 
	C208.812103,117.102997 209.636765,116.202484 211.065063,115.157501 
	C212.112488,115.007156 212.556274,115.001274 213.000061,114.995392 
	C213.751450,115.002106 214.502823,115.008827 215.975616,115.025841 
	C217.784683,115.368103 218.872314,115.700073 219.959961,116.032043 
	C220.959869,119.089134 221.959793,122.146225 222.970291,126.066818 
	C222.982819,131.290878 222.984741,135.651428 222.981537,140.440720 
	C222.976425,142.962906 222.976425,145.056351 222.976425,147.465363 
	C224.969681,147.285599 226.390503,147.157471 227.811325,147.029327 
	C225.911835,148.751923 224.012329,150.474533 221.809784,152.324280 
	C221.339478,143.646149 221.113831,134.841492 221.021637,126.035431 
	C220.931793,117.451317 216.301941,114.680466 208.497742,118.985443 
z"/>
<path fill="#ED847C" opacity="1.000000" stroke="none" 
	d="
M178.830902,163.581726 
	C177.704086,164.334229 176.675262,164.622620 175.324554,164.949402 
	C175.353882,158.929565 175.570053,152.858459 176.146622,146.821747 
	C176.300095,145.214828 177.558426,143.713425 178.664673,142.063507 
	C179.205231,141.976868 179.390625,141.990265 179.853577,142.034317 
	C179.730377,149.082520 179.329651,156.100067 178.830902,163.581726 
z"/>
<path fill="#F6827A" opacity="1.000000" stroke="none" 
	d="
M168.004364,174.411835 
	C170.728500,174.331665 173.451492,174.651123 176.578827,174.992020 
	C176.986191,177.647095 176.750092,180.307877 177.045288,182.908356 
	C177.557053,187.416977 174.143173,189.023209 171.242523,190.512466 
	C168.515778,191.912460 167.748840,189.489594 168.061386,187.337265 
	C168.671265,183.137161 169.869659,178.983627 168.004364,174.411835 
z"/>
<path fill="#F6827A" opacity="1.000000" stroke="none" 
	d="
M330.496887,194.887024 
	C328.782318,192.949631 327.794952,190.587479 326.040771,189.183105 
	C323.678131,187.291550 322.755707,185.596008 323.508820,182.503296 
	C324.016052,180.420166 323.299835,178.039139 323.521393,175.396225 
	C326.926147,175.005402 329.940460,175.009720 332.954712,175.014038 
	C332.966858,180.385895 333.111298,185.763107 332.894562,191.125717 
	C332.842865,192.405106 331.585419,193.635773 330.496887,194.887024 
z"/>
<path fill="#EF7871" opacity="1.000000" stroke="none" 
	d="
M332.968567,174.567078 
	C329.940460,175.009720 326.926147,175.005402 323.458984,175.002777 
	C323.001434,171.641235 322.996796,168.278015 322.994873,164.456482 
	C325.732605,164.316513 328.467651,164.634857 331.611328,164.961334 
	C332.340729,168.019684 332.661560,171.069885 332.968567,174.567078 
z"/>
<path fill="#333333" opacity="1.000000" stroke="none" 
	d="
M263.765076,360.996826 
	C263.199585,361.578766 262.367554,362.159882 261.241394,362.862427 
	C260.117126,360.924561 259.287018,358.865265 258.456879,356.805939 
	C258.787964,356.594269 259.119049,356.382599 259.450134,356.170929 
	C260.465149,357.633606 261.480164,359.096283 262.730286,360.779419 
	C263.143127,360.998596 263.320831,360.997314 263.765076,360.996826 
z"/>
<path fill="#333333" opacity="1.000000" stroke="none" 
	d="
M258.354309,351.153198 
	C258.686218,352.096405 258.759949,353.091248 258.833710,354.086090 
	C258.405151,354.066711 257.976562,354.047363 257.548004,354.028015 
	C257.730743,353.086945 257.913452,352.145874 258.354309,351.153198 
z"/>
<path fill="#F4716A" opacity="1.000000" stroke="none" 
	d="
M151.001190,88.000839 
	C151.055206,88.853371 151.108002,89.705063 151.160797,90.556755 
	C150.727448,90.563263 150.294083,90.569771 149.860733,90.576286 
	C150.063461,89.819283 150.266205,89.062286 150.733582,88.152084 
	C150.998245,87.998878 151.000000,88.000000 151.001190,88.000839 
z"/>
<path fill="#F37670" opacity="1.000000" stroke="none" 
	d="
M222.986664,140.011993 
	C222.984741,135.651428 222.982819,131.290878 222.982147,126.465698 
	C237.776978,126.000305 252.570648,126.024376 267.364014,125.968941 
	C269.326080,125.961586 271.286652,125.549835 273.630951,125.153580 
	C275.005371,126.121948 276.715576,127.182983 276.851471,128.417313 
	C277.238647,131.934723 276.984741,135.522720 276.576660,139.546158 
	C274.107147,140.343857 272.044006,140.678329 269.980896,141.012802 
	C268.534180,141.030640 267.087433,141.048477 265.209167,141.106064 
	C263.863434,140.445084 262.949219,139.744339 261.826538,138.468872 
	C261.078918,137.615326 260.539734,137.336533 260.000549,137.057739 
	C260.000549,137.057739 259.952332,137.054810 259.915894,136.683807 
	C258.816437,135.648758 257.753418,134.984726 256.690369,134.320694 
	C256.690369,134.320694 256.769562,134.263977 256.690369,134.018860 
	C256.089325,133.526215 255.567459,133.278702 255.045593,133.031174 
	C255.045593,133.031174 254.975952,133.038681 254.926727,132.644409 
	C251.671204,127.931328 248.920731,127.892105 243.732681,131.847336 
	C239.582321,135.011475 235.308838,138.014084 230.670441,141.061600 
	C227.829483,140.693878 225.408066,140.352936 222.986664,140.011993 
z"/>
<path fill="#ED847C" opacity="1.000000" stroke="none" 
	d="
M220.114746,115.702744 
	C218.872314,115.700073 217.784683,115.368103 216.351334,115.023788 
	C216.962570,113.579330 217.919510,112.147202 218.876450,110.715080 
	C219.407318,110.914330 219.938187,111.113579 220.469070,111.312828 
	C220.402557,112.666367 220.336060,114.019897 220.114746,115.702744 
z"/>
<path fill="#ED847C" opacity="1.000000" stroke="none" 
	d="
M212.945496,114.722580 
	C212.556274,115.001274 212.112488,115.007156 211.335876,115.010330 
	C211.319122,114.536095 211.635208,114.064568 211.951279,113.593040 
	C212.264496,113.878616 212.577713,114.164200 212.945496,114.722580 
z"/>
<path fill="#131313" opacity="1.000000" stroke="none" 
	d="
M332.668518,318.821411 
	C332.361328,318.664398 332.230499,318.469940 332.099670,318.275452 
	C332.253754,318.236969 332.501068,318.121338 332.544769,318.174194 
	C332.685272,318.343964 332.750580,318.575958 332.668518,318.821411 
z"/>
<path fill="#CE8783" opacity="1.000000" stroke="none" 
	d="
M231.089996,141.088379 
	C235.308838,138.014084 239.582321,135.011475 243.732681,131.847336 
	C248.920731,127.892105 251.671204,127.931328 254.920197,132.609985 
	C251.244293,129.361954 248.183701,130.226578 244.564835,133.629471 
	C239.682678,138.220230 234.180023,142.151138 228.645874,146.109711 
	C229.262070,144.265625 230.176041,142.677002 231.089996,141.088379 
z"/>
<path fill="#ED847C" opacity="1.000000" stroke="none" 
	d="
M230.670441,141.061600 
	C230.176041,142.677002 229.262070,144.265625 228.303406,146.208603 
	C228.258698,146.562973 228.123795,146.880219 227.967560,146.954773 
	C226.390503,147.157471 224.969681,147.285599 222.976425,147.465363 
	C222.976425,145.056351 222.976425,142.962906 222.981537,140.440720 
	C225.408066,140.352936 227.829483,140.693878 230.670441,141.061600 
z"/>
<path fill="#CE8783" opacity="1.000000" stroke="none" 
	d="
M256.823914,134.599670 
	C257.753418,134.984726 258.816437,135.648758 259.910461,136.660278 
	C258.946808,136.298050 257.952118,135.588348 256.823914,134.599670 
z"/>
<path fill="#CE8783" opacity="1.000000" stroke="none" 
	d="
M260.128723,137.331558 
	C260.539734,137.336533 261.078918,137.615326 261.705383,138.201736 
	C261.280731,138.208023 260.768829,137.906708 260.128723,137.331558 
z"/>
<path fill="#CE8783" opacity="1.000000" stroke="none" 
	d="
M255.174713,133.289810 
	C255.567459,133.278702 256.089325,133.526215 256.699982,134.066605 
	C256.293793,134.089127 255.798828,133.818787 255.174713,133.289810 
z"/>
<path fill="#F6827A" opacity="1.000000" stroke="none" 
	d="
M270.001740,141.373474 
	C272.044006,140.678329 274.107147,140.343857 276.568054,140.013550 
	C276.848846,142.209198 276.731873,144.400681 276.614899,146.592178 
	C276.125122,146.846512 275.635376,147.100861 275.145599,147.355209 
	C273.437927,145.481522 271.730255,143.607849 270.001740,141.373474 
z"/>
</svg>